SplineFontDB: 3.2
FontName: Samaano-Wide-Bold
FullName: Samaano Bold
FamilyName: Samaano
Weight: Bold
Copyright: Copyright 2024, Samaano Font Authors (https://github.com/mitradranirban/samaano-fonts)
UComments: "2024-8-27: Created with FontForge (http://fontforge.org)"
Version: 0.2
ItalicAngle: 0
UnderlinePosition: -204
UnderlineWidth: 102
Ascent: 1638
Descent: 410
InvalidEm: 0
UFOAscent: 1638
UFODescent: -410
LayerCount: 2
Layer: 0 0 "Back" 1
Layer: 1 0 "public.default" 0 "glyphs"
StyleMap: 0x0020
FSType: 0
OS2Version: 0
OS2_WeightWidthSlopeOnly: 0
OS2_UseTypoMetrics: 0
CreationTime: 1725521133
ModificationTime: 1725533136
PfmFamily: 16
TTFWeight: 700
TTFWidth: 9
LineGap: 0
VLineGap: 0
Panose: 2 0 8 9 0 0 0 0 0 0
OS2TypoAscent: 2457
OS2TypoAOffset: 0
OS2TypoDescent: -615
OS2TypoDOffset: 0
OS2TypoLinegap: 0
OS2WinAscent: 2457
OS2WinAOffset: 0
OS2WinDescent: 615
OS2WinDOffset: 0
HheadAscent: 2457
HheadAOffset: 0
HheadDescent: -615
HheadDOffset: 0
OS2CapHeight: 1548
OS2XHeight: 1024
OS2FamilyClass: 1031
OS2Vendor: 'anir'
DEI: 91125
LangName: 1033 "Copyright 2024, Samaano Font Authors (https://github.com/mitradranirban/samaano-fonts)" "" "" "" "" "Version 0.002" "" "" "" "Dr Anirban Mitra" "A Monspace Variable Font Family in Latin and Devanagari created using rectangular components only " "" "https://github.com/mitradranirban" "This Font Software is licensed under the SIL Open Font License, Version 1.1." "http://scripts.sil.org/OFL"
Encoding: UnicodeBmp
UnicodeInterp: none
NameList: AGL For New Fonts
DisplaySize: -128
AntiAlias: 1
FitToEm: 0
WinInfo: 550 10 4
Grid
-1024 1548 m 0
 3072 1548 l 1024
1886 1030 m 0
 -2210 1030 l 1024
EndSplineSet
BeginChars: 65536 184

StartChar: .notdef
Encoding: 0 0 0
GlifName: _notdef
Width: 2048
VWidth: 0
Flags: W
LayerCount: 2
Fore
SplineSet
524 0 m 257
 524 64 l 257
 524 1632 l 257
 1522 1640 l 257
 1524 0 l 257
 1454 0 l 257
 594 0 l 257
 524 0 l 257
594 64 m 257
 991 827 l 257
 598 1546 l 257
 594 64 l 257
690 64 m 257
 1370 64 l 257
 1029 750 l 257
 690 64 l 257
718 1548 m 257
 1031 909 l 257
 1349 1558 l 257
 718 1548 l 257
1069 832 m 257
 1453 64 l 257
 1445 1559 l 257
 1069 832 l 257
EndSplineSet
EndChar

StartChar: A
Encoding: 65 65 1
GlifName: A_
Width: 2048
VWidth: 0
GlyphClass: 2
Flags: W
LayerCount: 2
Fore
SplineSet
128 1 m 257
 325 0 l 257
 324 1548 l 257
 125 1548 l 257
 128 1 l 257
182 1337 m 257
 1858 1332 l 257
 1854 1548 l 257
 186 1548 l 257
 182 1337 l 257
204 1025 m 257
 202 840 l 257
 1842 849 l 257
 1842 1025 l 257
 204 1025 l 257
1731 0 m 257
 1931 0 l 257
 1929 1548 l 257
 1729 1548 l 257
 1731 0 l 257
EndSplineSet
Guideline: "WIN-ASCENT" "" 0 2457 0 0 0
Guideline: "X_HEIGHT" "" 0 1024 0 0 0
Guideline: "CAPS_HEIFGHT" "" 0 1548 0 0 0
EndChar

StartChar: B
Encoding: 66 66 2
GlifName: B_
Width: 2048
VWidth: 0
GlyphClass: 2
Flags: W
LayerCount: 2
Fore
SplineSet
140 2 m 257
 324 1 l 257
 318 1533 l 257
 110 1534 l 257
 140 2 l 257
1456 1331 m 257
 1974 989 l 257
 1971 1215 l 257
 1458 1536 l 257
 1456 1331 l 257
1459 820 m 257
 1977 991 l 257
 1972 1215 l 257
 1457 1020 l 257
 1459 820 l 257
1399 201 m 257
 1399 1 l 257
 1937 364 l 257
 1953 588 l 257
 1399 201 l 257
1463 567 m 257
 1937 364 l 257
 1953 586 l 257
 1466 766 l 257
 1463 567 l 257
271 1020 m 257
 272 820 l 257
 1459 820 l 257
 1457 1021 l 257
 271 1020 l 257
270 766 m 257
 269 567 l 257
 1465 567 l 257
 1466 766 l 257
 270 766 l 257
208 200 m 257
 208 1 l 257
 1399 1 l 257
 1399 200 l 257
 208 200 l 257
270 1535 m 257
 269 1331 l 257
 1456 1331 l 257
 1457 1535 l 257
 270 1535 l 257
EndSplineSet
EndChar

StartChar: C
Encoding: 67 67 3
GlifName: C_
Width: 2048
VWidth: 0
GlyphClass: 2
Flags: W
LayerCount: 2
Fore
SplineSet
158 1533 m 257
 358 1533 l 257
 362 3 l 257
 162 3 l 257
 158 1533 l 257
257 1533 m 257
 1954 1541 l 257
 1956 1338 l 257
 257 1335 l 257
 257 1533 l 257
243 209 m 257
 1952 199 l 257
 1955 -3 l 257
 243 3 l 257
 243 209 l 257
EndSplineSet
EndChar

StartChar: D
Encoding: 68 68 4
GlifName: D_
Width: 2048
VWidth: 0
GlyphClass: 2
Flags: W
LayerCount: 2
Fore
SplineSet
107 1547 m 257
 142 -1 l 257
 342 0 l 257
 309 1548 l 257
 107 1547 l 257
1433 1550 m 257
 1434 1350 l 257
 1918 767 l 257
 1916 1019 l 257
 1433 1550 l 257
1441 201 m 257
 1442 1 l 257
 1915 769 l 257
 1913 1025 l 257
 1441 201 l 257
271 1548 m 257
 271 1349 l 257
 1434 1349 l 257
 1433 1549 l 257
 271 1548 l 257
279 199 m 257
 279 0 l 257
 1442 0 l 257
 1441 200 l 257
 279 199 l 257
EndSplineSet
EndChar

StartChar: E
Encoding: 69 69 5
GlifName: E_
Width: 2048
VWidth: 0
GlyphClass: 2
Flags: W
LayerCount: 2
Fore
SplineSet
103 1537 m 257
 112 3 l 257
 319 3 l 257
 303 1535 l 257
 103 1537 l 257
181 1536 m 257
 188 1338 l 257
 1902 1333 l 257
 1900 1536 l 257
 181 1536 l 257
170 203 m 257
 171 5 l 257
 1920 1 l 257
 1916 203 l 257
 170 203 l 257
170 888 m 257
 170 688 l 257
 1669 688 l 257
 1669 888 l 257
 170 888 l 257
EndSplineSet
EndChar

StartChar: F
Encoding: 70 70 6
GlifName: F_
Width: 2048
VWidth: 0
GlyphClass: 2
Flags: W
LayerCount: 2
Fore
SplineSet
141 1548 m 257
 150 3 l 257
 356 3 l 257
 341 1547 l 257
 141 1548 l 257
243 1548 m 257
 243 1351 l 257
 1883 1347 l 257
 1877 1548 l 257
 243 1548 l 257
231 880 m 257
 232 683 l 257
 1789 672 l 257
 1780 875 l 257
 231 880 l 257
EndSplineSet
EndChar

StartChar: G
Encoding: 71 71 7
GlifName: G_
Width: 2048
VWidth: 0
GlyphClass: 2
Flags: W
LayerCount: 2
Fore
SplineSet
110 1547 m 257
 110 0 l 257
 312 0 l 257
 312 1547 l 257
 110 1547 l 257
168 1547 m 257
 168 1347 l 257
 1868 1347 l 257
 1868 1547 l 257
 168 1547 l 257
141 202 m 257
 141 0 l 257
 1904 0 l 257
 1904 202 l 257
 141 202 l 257
1705 561 m 257
 1705 18 l 257
 1904 18 l 257
 1904 561 l 257
 1705 561 l 257
EndSplineSet
EndChar

StartChar: H
Encoding: 72 72 8
GlifName: H_
Width: 2048
VWidth: 0
GlyphClass: 2
Flags: W
LayerCount: 2
Fore
SplineSet
89 1540 m 257
 89 1 l 257
 289 1 l 257
 289 1540 l 257
 89 1540 l 257
1675 1540 m 257
 1675 1 l 257
 1885 1 l 257
 1885 1540 l 257
 1675 1540 l 257
209 1020 m 257
 209 818 l 257
 1755 818 l 257
 1755 1020 l 257
 209 1020 l 257
EndSplineSet
EndChar

StartChar: I
Encoding: 73 73 9
GlifName: I_
Width: 2048
VWidth: 0
GlyphClass: 2
Flags: W
LayerCount: 2
Fore
SplineSet
144 1537 m 257
 144 1335 l 257
 1889 1335 l 257
 1889 1537 l 257
 144 1537 l 257
975 1468 m 257
 975 84 l 257
 1175 84 l 257
 1175 1468 l 257
 975 1468 l 257
124 204 m 257
 124 6 l 257
 1924 6 l 257
 1924 204 l 257
 124 204 l 257
EndSplineSet
EndChar

StartChar: J
Encoding: 74 74 10
GlifName: J_
Width: 2048
VWidth: 0
GlyphClass: 2
Flags: W
LayerCount: 2
Fore
SplineSet
1700 1527 m 257
 1700 1 l 257
 1900 1 l 257
 1900 1527 l 257
 1700 1527 l 257
126 208 m 257
 126 0 l 257
 1741 0 l 257
 1741 208 l 257
 126 208 l 257
125 503 m 257
 125 54 l 257
 323 52 l 257
 323 503 l 257
 125 503 l 257
EndSplineSet
EndChar

StartChar: K
Encoding: 75 75 11
GlifName: K_
Width: 2048
VWidth: 0
GlyphClass: 2
Flags: W
LayerCount: 2
Fore
SplineSet
118 1535 m 257
 118 5 l 257
 319 5 l 257
 319 1535 l 257
 118 1535 l 257
163 999 m 257
 282 835 l 257
 1889 1529 l 257
 1622 1536 l 257
 163 999 l 257
293 798 m 257
 156 643 l 257
 1661 -1 l 257
 1942 0 l 257
 293 798 l 257
EndSplineSet
EndChar

StartChar: L
Encoding: 76 76 12
GlifName: L_
Width: 2048
VWidth: 0
GlyphClass: 2
Flags: W
LayerCount: 2
Fore
SplineSet
53 1542 m 257
 53 3 l 257
 251 3 l 257
 251 1542 l 257
 53 1542 l 257
162 202 m 257
 167 3 l 257
 1843 3 l 257
 1838 202 l 257
 162 202 l 257
EndSplineSet
EndChar

StartChar: M
Encoding: 77 77 13
GlifName: M_
Width: 2048
VWidth: 0
GlyphClass: 2
Flags: W
LayerCount: 2
Fore
SplineSet
101 1546 m 257
 101 2 l 257
 304 2 l 257
 304 1546 l 257
 101 1546 l 257
1672 1541 m 257
 1672 -3 l 257
 1874 -3 l 257
 1874 1541 l 257
 1672 1541 l 257
138 1429 m 257
 853 1026 l 257
 1041 1031 l 257
 280 1546 l 257
 138 1429 l 257
1699 1541 m 257
 852 1027 l 257
 1039 1025 l 257
 1865 1488 l 257
 1699 1541 l 257
EndSplineSet
EndChar

StartChar: N
Encoding: 78 78 14
GlifName: N_
Width: 2048
VWidth: 0
GlyphClass: 2
Flags: W
LayerCount: 2
Fore
SplineSet
95 1549 m 257
 101 2 l 257
 305 2 l 257
 300 1548 l 257
 95 1549 l 257
1672 1548 m 257
 1672 0 l 257
 1875 1 l 257
 1874 1548 l 257
 1672 1548 l 257
96 1550 m 257
 1673 -1 l 257
 1876 -1 l 257
 301 1548 l 257
 96 1550 l 257
EndSplineSet
EndChar

StartChar: O
Encoding: 79 79 15
GlifName: O_
Width: 2048
VWidth: 0
GlyphClass: 2
Flags: W
LayerCount: 2
Fore
SplineSet
110 1540 m 257
 110 0 l 257
 311 0 l 257
 311 1540 l 257
 110 1540 l 257
1657 1537 m 257
 1657 0 l 257
 1860 0 l 257
 1860 1537 l 257
 1657 1537 l 257
174 1538 m 257
 174 1337 l 257
 1767 1337 l 257
 1767 1538 l 257
 174 1538 l 257
150 204 m 257
 150 0 l 257
 1773 0 l 257
 1773 204 l 257
 150 204 l 257
EndSplineSet
EndChar

StartChar: P
Encoding: 80 80 16
GlifName: P_
Width: 2048
VWidth: 0
GlyphClass: 2
Flags: W
LayerCount: 2
Fore
SplineSet
112 1545 m 257
 112 9 l 257
 302 9 l 257
 302 1545 l 257
 112 1545 l 257
191 1545 m 257
 190 1346 l 257
 1797 1346 l 257
 1797 1545 l 257
 191 1545 l 257
1617 1545 m 257
 1617 881 l 257
 1817 881 l 257
 1817 1545 l 257
 1617 1545 l 257
175 1068 m 257
 175 868 l 257
 1812 868 l 257
 1812 1068 l 257
 175 1068 l 257
EndSplineSet
EndChar

StartChar: Q
Encoding: 81 81 17
GlifName: Q_
Width: 2048
VWidth: 0
GlyphClass: 2
Flags: W
LayerCount: 2
Fore
SplineSet
110 1540 m 257
 110 5 l 257
 309 5 l 257
 309 1540 l 257
 110 1540 l 257
1659 1537 m 257
 1659 -2 l 257
 1860 -2 l 257
 1860 1537 l 257
 1659 1537 l 257
174 1538 m 257
 174 1337 l 257
 1767 1337 l 257
 1767 1538 l 257
 174 1538 l 257
150 205 m 257
 150 3 l 257
 1773 3 l 257
 1773 205 l 257
 150 205 l 257
1208 21 m 257
 1394 -285 l 257
 1585 -169 l 257
 1399 137 l 257
 1208 21 l 257
EndSplineSet
EndChar

StartChar: R
Encoding: 82 82 18
GlifName: R_
Width: 2048
VWidth: 0
GlyphClass: 2
Flags: W
LayerCount: 2
Fore
SplineSet
112 1535 m 257
 112 -1 l 257
 313 -1 l 257
 313 1535 l 257
 112 1535 l 257
191 1536 m 257
 191 1335 l 257
 1847 1335 l 257
 1847 1536 l 257
 191 1536 l 257
1674 1536 m 257
 1674 872 l 257
 1874 872 l 257
 1874 1536 l 257
 1674 1536 l 257
175 1079 m 257
 175 868 l 257
 1862 868 l 257
 1862 1079 l 257
 175 1079 l 257
315 875 m 257
 1716 1 l 257
 1956 -4 l 257
 514 892 l 257
 315 875 l 257
EndSplineSet
EndChar

StartChar: S
Encoding: 83 83 19
GlifName: S_
Width: 2048
VWidth: 0
GlyphClass: 2
Flags: W
LayerCount: 2
Fore
SplineSet
146 1539 m 257
 146 1336 l 257
 1744 1336 l 257
 1744 1539 l 257
 146 1539 l 257
146 1542 m 257
 146 1028 l 257
 348 1028 l 257
 348 1542 l 257
 146 1542 l 257
174 199 m 257
 174 0 l 257
 1882 0 l 257
 1882 199 l 257
 174 199 l 257
1717 1 m 257
 1918 1 l 257
 1918 355 l 257
 1717 355 l 257
 1717 1 l 257
146 1028 m 257
 1717 355 l 257
 1918 355 l 257
 348 1028 l 257
 146 1028 l 257
EndSplineSet
EndChar

StartChar: T
Encoding: 84 84 20
GlifName: T_
Width: 2048
VWidth: 0
GlyphClass: 2
Flags: W
LayerCount: 2
Fore
SplineSet
125 1549 m 257
 125 1348 l 257
 1923 1348 l 257
 1923 1549 l 257
 125 1549 l 257
924 1436 m 257
 924 6 l 257
 1124 6 l 257
 1124 1436 l 257
 924 1436 l 257
EndSplineSet
EndChar

StartChar: U
Encoding: 85 85 21
GlifName: U_
Width: 2048
VWidth: 0
GlyphClass: 2
Flags: W
LayerCount: 2
Fore
SplineSet
157 1536 m 257
 157 0 l 257
 357 0 l 257
 357 1536 l 257
 157 1536 l 257
1692 1535 m 257
 1692 0 l 257
 1892 0 l 257
 1891 1535 l 257
 1692 1535 l 257
204 200 m 257
 205 0 l 257
 1848 0 l 257
 1848 200 l 257
 204 200 l 257
EndSplineSet
EndChar

StartChar: V
Encoding: 86 86 22
GlifName: V_
Width: 2048
VWidth: 0
GlyphClass: 2
Flags: W
LayerCount: 2
Fore
SplineSet
106 1548 m 257
 878 -5 l 257
 1099 0 l 257
 307 1548 l 257
 106 1548 l 257
1716 1548 m 257
 1003 1 l 257
 1226 0 l 257
 1917 1548 l 257
 1716 1548 l 257
EndSplineSet
EndChar

StartChar: W
Encoding: 87 87 23
GlifName: W_
Width: 2048
VWidth: 0
GlyphClass: 2
Flags: W
LayerCount: 2
Fore
SplineSet
104 1546 m 257
 105 1 l 257
 306 0 l 257
 305 1546 l 257
 104 1546 l 257
1745 1545 m 257
 1745 12 l 257
 1946 12 l 257
 1946 1545 l 257
 1745 1545 l 257
927 1028 m 257
 928 1 l 257
 1127 1 l 257
 1128 1028 l 257
 927 1028 l 257
103 201 m 257
 105 1 l 257
 1946 0 l 257
 1946 201 l 257
 103 201 l 257
EndSplineSet
EndChar

StartChar: X
Encoding: 88 88 24
GlifName: X_
Width: 2048
VWidth: 0
GlyphClass: 2
Flags: W
LayerCount: 2
Fore
SplineSet
91 1545 m 257
 290 1548 l 257
 1975 -2 l 257
 1775 0 l 257
 91 1545 l 257
94 3 m 257
 1768 1546 l 257
 1967 1544 l 257
 295 6 l 257
 94 3 l 257
EndSplineSet
EndChar

StartChar: Y
Encoding: 89 89 25
GlifName: Y_
Width: 2048
VWidth: 0
GlyphClass: 2
Flags: W
LayerCount: 2
Fore
SplineSet
963 896 m 257
 968 -2 l 257
 1170 -1 l 257
 1165 897 l 257
 963 896 l 257
160 1547 m 257
 160 859 l 257
 360 859 l 257
 360 1547 l 257
 160 1547 l 257
1788 1548 m 257
 1786 859 l 257
 1987 859 l 257
 1987 1547 l 257
 1788 1548 l 257
228 1019 m 257
 228 859 l 257
 1897 859 l 257
 1897 1019 l 257
 228 1019 l 257
EndSplineSet
EndChar

StartChar: Z
Encoding: 90 90 26
GlifName: Z_
Width: 2048
VWidth: 0
GlyphClass: 2
Flags: W
LayerCount: 2
Fore
SplineSet
97 1546 m 257
 98 1336 l 257
 1926 1336 l 257
 1931 1548 l 257
 97 1546 l 257
98 212 m 257
 98 0 l 257
 1926 0 l 257
 1926 212 l 257
 98 212 l 257
1670 1336 m 257
 98 212 l 257
 305 211 l 257
 1915 1335 l 257
 1670 1336 l 257
EndSplineSet
EndChar

StartChar: a
Encoding: 97 97 27
GlifName: a
Width: 2048
VWidth: 0
GlyphClass: 2
Flags: W
LayerCount: 2
Fore
SplineSet
168 1025 m 257
 168 824 l 257
 1772 824 l 257
 1774 1024 l 257
 168 1025 l 257
1661 1025 m 257
 1658 -1 l 257
 1860 1 l 257
 1855 1025 l 257
 1661 1025 l 257
172 602 m 257
 174 401 l 257
 1796 400 l 257
 1796 599 l 257
 172 602 l 257
172 575 m 257
 172 -2 l 257
 373 -2 l 257
 373 575 l 257
 172 575 l 257
170 200 m 257
 172 -2 l 257
 1860 1 l 257
 1860 201 l 257
 170 200 l 257
EndSplineSet
EndChar

StartChar: acutecomb
Encoding: 769 769 28
GlifName: acutecomb
Width: 2048
VWidth: 0
GlyphClass: 2
Flags: W
LayerCount: 2
Fore
SplineSet
551 980 m 257
 421 726 l 257
 509 680 l 257
 640 935 l 257
 551 980 l 257
EndSplineSet
PickledDataWithLists: "(dp0
."
EndChar

StartChar: ampersand
Encoding: 38 38 29
GlifName: ampersand
Width: 2048
VWidth: 0
GlyphClass: 2
Flags: HW
LayerCount: 2
Fore
SplineSet
772.5 1536 m 257
 1219.5 12 l 257
 1366.5 56 l 257
 934.5 1534 l 257
 772.5 1536 l 257
1315.5 1401 m 257
 1315.5 1536 l 257
 850.5 1536 l 257
 850.5 1401 l 257
 1315.5 1401 l 257
1155.5 1446 m 257
 1155.5 917 l 257
 1315.5 917 l 257
 1315.5 1446 l 257
 1155.5 1446 l 257
619.5 1045 m 257
 619.5 843 l 257
 1315.5 843 l 257
 1315.5 1045 l 257
 619.5 1045 l 257
619.5 1045 m 257
 619.5 24 l 257
 829.5 24 l 257
 829.5 1045 l 257
 619.5 1045 l 257
619.5 190 m 257
 619.5 6 l 257
 1428.5 6 l 257
 1428.5 190 l 257
 619.5 190 l 257
EndSplineSet
PickledDataWithLists: "(dp0
."
EndChar

StartChar: asciicircum
Encoding: 94 94 30
GlifName: asciicircum
Width: 2048
VWidth: 0
GlyphClass: 2
Flags: W
LayerCount: 2
Fore
SplineSet
1099.5 1023 m 257
 950.5 1025 l 257
 685.5 407 l 257
 835.5 345 l 257
 1099.5 1023 l 257
956.5 904 m 257
 1212.5 343 l 257
 1362.5 400 l 257
 1099.5 1023 l 257
 956.5 904 l 257
EndSplineSet
PickledDataWithLists: "(dp0
."
EndChar

StartChar: asciitilde
Encoding: 126 126 31
GlifName: asciitilde
Width: 2048
VWidth: 0
GlyphClass: 2
Flags: W
LayerCount: 2
Fore
SplineSet
877.5 815 m 257
 877.5 716 l 257
 1227.5 655 l 257
 1227.5 754 l 257
 877.5 815 l 257
639.5 757 m 257
 654.5 659 l 257
 877.5 716 l 257
 877.5 815 l 257
 639.5 757 l 257
1227.5 754 m 257
 1227.5 655 l 257
 1408.5 796 l 257
 1384.5 892 l 257
 1227.5 754 l 257
EndSplineSet
EndChar

StartChar: asterisk
Encoding: 42 42 32
GlifName: asterisk
Width: 2048
VWidth: 0
GlyphClass: 2
Flags: HW
LayerCount: 2
Fore
SplineSet
934 1297 m 257
 934 300 l 257
 1164 300 l 257
 1164 1297 l 257
 934 1297 l 257
577 1099 m 257
 1305 360 l 257
 1464 504 l 257
 732 1241 l 257
 577 1099 l 257
1329 1232 m 257
 606 525 l 257
 748 372 l 257
 1471 1079 l 257
 1329 1232 l 257
EndSplineSet
PickledDataWithLists: "(dp0
."
EndChar

StartChar: at
Encoding: 64 64 33
GlifName: at
Width: 2048
VWidth: 0
GlyphClass: 2
Flags: W
LayerCount: 2
Fore
SplineSet
613 1024 m 257
 614 879 l 257
 1428 879 l 257
 1432 1024 l 257
 613 1024 l 257
1149 592 m 257
 1148 -1 l 257
 1306 0 l 257
 1302 592 l 257
 1149 592 l 257
816 602 m 257
 818 445 l 257
 1241 444 l 257
 1241 600 l 257
 816 602 l 257
813 589 m 257
 813 12 l 257
 987 12 l 257
 987 589 l 257
 813 589 l 257
811 187 m 257
 812 -2 l 257
 1305 0 l 257
 1305 188 l 257
 811 187 l 257
525 1024 m 257
 526 -223 l 257
 701 -223 l 257
 701 1024 l 257
 525 1024 l 257
523 -86 m 257
 523 -258 l 257
 1471 -258 l 257
 1471 -86 l 257
 523 -86 l 257
1374 1011 m 257
 1374 0 l 257
 1525 0 l 257
 1525 1011 l 257
 1374 1011 l 257
1246 175 m 257
 1246 1 l 257
 1455 1 l 257
 1455 175 l 257
 1246 175 l 257
EndSplineSet
EndChar

StartChar: b
Encoding: 98 98 34
GlifName: b
Width: 2048
VWidth: 0
GlyphClass: 2
Flags: W
LayerCount: 2
Fore
SplineSet
135 1536 m 257
 135 1 l 257
 334 1 l 257
 334 1536 l 257
 135 1536 l 257
232 1033 m 257
 232 834 l 257
 1758 834 l 257
 1758 1033 l 257
 232 1033 l 257
1698 1033 m 257
 1698 0 l 257
 1897 0 l 257
 1897 1033 l 257
 1698 1033 l 257
260 207 m 257
 260 1 l 257
 1818 1 l 257
 1818 207 l 257
 260 207 l 257
EndSplineSet
EndChar

StartChar: backslash
Encoding: 92 92 35
GlifName: backslash
Width: 2048
VWidth: 0
GlyphClass: 2
Flags: W
LayerCount: 2
Fore
SplineSet
615 1441 m 257
 1242 -13 l 257
 1433 65 l 257
 807 1519 l 257
 615 1441 l 257
EndSplineSet
PickledDataWithLists: "(dp0
."
EndChar

StartChar: bar
Encoding: 124 124 36
GlifName: bar
Width: 2048
VWidth: 0
GlyphClass: 2
Flags: W
LayerCount: 2
Fore
SplineSet
525 1435 m 257
 525 -90 l 257
 728 -90 l 257
 728 1435 l 257
 525 1435 l 257
EndSplineSet
PickledDataWithLists: "(dp0
."
EndChar

StartChar: braceleft
Encoding: 123 123 37
GlifName: braceleft
Width: 2048
VWidth: 0
GlyphClass: 2
Flags: W
LayerCount: 2
Fore
SplineSet
421 1544 m 257
 425 838 l 257
 571 838 l 257
 567 1544 l 257
 421 1544 l 257
433 424 m 257
 433 -286 l 257
 579 -286 l 257
 579 424 l 257
 433 424 l 257
132 690 m 257
 132 630 l 257
 567 838 l 257
 421 838 l 257
 132 690 l 257
132 690 m 257
 132 630 l 257
 431 423 l 257
 580 425 l 257
 132 690 l 257
422 1603 m 257
 422 1452 l 257
 690 1574 l 257
 694 1603 l 257
 422 1603 l 257
434 -140 m 257
 434 -284 l 257
 709 -287 l 257
 710 -274 l 257
 434 -140 l 257
EndSplineSet
EndChar

StartChar: braceright
Encoding: 125 125 38
GlifName: braceright
Width: 2048
VWidth: 0
GlyphClass: 2
Flags: W
LayerCount: 2
Fore
SplineSet
437 1544 m 257
 433 838 l 257
 271 838 l 257
 275 1544 l 257
 437 1544 l 257
423 424 m 257
 423 -286 l 257
 263 -286 l 257
 263 424 l 257
 423 424 l 257
710 690 m 257
 710 630 l 257
 271 838 l 257
 432 838 l 257
 710 690 l 257
710 690 m 257
 710 630 l 257
 423 424 l 257
 263 424 l 257
 710 690 l 257
438 1603 m 257
 435 1452 l 257
 167 1574 l 257
 163 1603 l 257
 438 1603 l 257
408 -140 m 257
 408 -284 l 257
 133 -287 l 257
 132 -274 l 257
 408 -140 l 257
EndSplineSet
EndChar

StartChar: bracketleft
Encoding: 91 91 39
GlifName: bracketleft
Width: 2048
VWidth: 0
GlyphClass: 2
Flags: W
LayerCount: 2
Fore
SplineSet
890 1542 m 257
 895 -242 l 257
 1017 -242 l 257
 1012 1542 l 257
 890 1542 l 257
944 1543 m 257
 944 1416 l 257
 1153 1416 l 257
 1153 1543 l 257
 944 1543 l 257
944 -91 m 257
 944 -242 l 257
 1158 -242 l 257
 1158 -91 l 257
 944 -91 l 257
EndSplineSet
PickledDataWithLists: "(dp0
."
EndChar

StartChar: bracketright
Encoding: 93 93 40
GlifName: bracketright
Width: 2048
VWidth: 0
GlyphClass: 2
Flags: W
LayerCount: 2
Fore
SplineSet
1035.5 1542 m 257
 1040.5 -242 l 257
 1162.5 -242 l 257
 1157.5 1542 l 257
 1035.5 1542 l 257
885.5 1543 m 257
 885.5 1416 l 257
 1094.5 1416 l 257
 1094.5 1543 l 257
 885.5 1543 l 257
885.5 -91 m 257
 885.5 -242 l 257
 1099.5 -242 l 257
 1099.5 -91 l 257
 885.5 -91 l 257
EndSplineSet
PickledDataWithLists: "(dp0
."
EndChar

StartChar: c
Encoding: 99 99 41
GlifName: c
Width: 2048
VWidth: 0
GlyphClass: 2
Flags: W
LayerCount: 2
Fore
SplineSet
164 1023 m 257
 166 826 l 257
 1868 826 l 257
 1870 1027 l 257
 164 1023 l 257
166 984 m 257
 166 -1 l 257
 368 0 l 257
 368 984 l 257
 166 984 l 257
272 201 m 257
 272 4 l 257
 1864 0 l 257
 1864 201 l 257
 272 201 l 257
EndSplineSet
EndChar

StartChar: colon
Encoding: 58 58 42
GlifName: colon
Width: 2048
VWidth: 0
GlyphClass: 2
Flags: W
LayerCount: 2
Fore
SplineSet
911.5 430 m 257
 911.5 201 l 257
 1159.5 201 l 257
 1159.5 430 l 257
 911.5 430 l 257
888.5 871 m 257
 888.5 624 l 257
 1153.5 624 l 257
 1153.5 871 l 257
 888.5 871 l 257
EndSplineSet
PickledDataWithLists: "(dp0
."
EndChar

StartChar: comma
Encoding: 44 44 43
GlifName: comma
Width: 2048
VWidth: 0
GlyphClass: 2
Flags: HW
LayerCount: 2
Fore
SplineSet
909.5 237 m 257
 909.5 8 l 257
 1157.5 8 l 257
 1157.5 237 l 257
 909.5 237 l 257
1008.5 135 m 257
 890.5 -146 l 257
 1033.5 -206 l 257
 1155.5 4 l 257
 1008.5 135 l 257
EndSplineSet
PickledDataWithLists: "(dp0
."
EndChar

StartChar: d
Encoding: 100 100 44
GlifName: d
Width: 2048
VWidth: 0
GlyphClass: 2
Flags: W
LayerCount: 2
Fore
SplineSet
1692 1527 m 257
 1692 0 l 257
 1893 0 l 257
 1893 1527 l 257
 1692 1527 l 257
228 1023 m 257
 233 822 l 257
 1781 822 l 257
 1781 1023 l 257
 228 1023 l 257
132 1024 m 257
 132 0 l 257
 334 0 l 257
 333 1022 l 257
 132 1024 l 257
228 195 m 257
 228 -1 l 257
 1845 0 l 257
 1845 195 l 257
 228 195 l 257
EndSplineSet
EndChar

StartChar: dollar
Encoding: 36 36 45
GlifName: dollar
Width: 2048
VWidth: 0
GlyphClass: 2
Flags: HW
LayerCount: 2
Fore
SplineSet
638 1539 m 257
 638 1358 l 257
 1236 1358 l 257
 1236 1539 l 257
 638 1539 l 257
638 1542 m 257
 638 1028 l 257
 843 1028 l 257
 843 1542 l 257
 638 1542 l 257
666 163 m 257
 666 0 l 257
 1374 0 l 257
 1374 163 l 257
 666 163 l 257
1204 1 m 257
 1410 1 l 257
 1410 355 l 257
 1204 355 l 257
 1204 1 l 257
638 1028 m 257
 1204 355 l 257
 1410 355 l 257
 843 1028 l 257
 638 1028 l 257
897 1636 m 257
 897 -215 l 257
 1111 -215 l 257
 1111 1636 l 257
 897 1636 l 257
EndSplineSet
PickledDataWithLists: "(dp0
."
EndChar

StartChar: e
Encoding: 101 101 46
GlifName: e
Width: 2048
VWidth: 0
GlyphClass: 2
Flags: W
LayerCount: 2
Fore
SplineSet
219 1021 m 257
 227 812 l 257
 1851 812 l 257
 1854 1024 l 257
 219 1021 l 257
169 1024 m 257
 165 -1 l 257
 372 1 l 257
 371 1022 l 257
 169 1024 l 257
271 197 m 257
 270 0 l 257
 1853 0 l 257
 1853 201 l 257
 271 197 l 257
239 625 m 257
 247 445 l 257
 1825 446 l 257
 1829 625 l 257
 239 625 l 257
1657 994 m 257
 1653 444 l 257
 1862 445 l 257
 1852 993 l 257
 1657 994 l 257
EndSplineSet
EndChar

StartChar: eight
Encoding: 56 56 47
GlifName: eight
Width: 2048
VWidth: 0
GlyphClass: 2
Flags: HW
LayerCount: 2
Fore
SplineSet
74.5 0 m 261
 74.5 856 l 261
 272.5 856 l 261
 272.5 0 l 261
 74.5 0 l 261
74.5 895 m 261
 67.5 1639 l 261
 271.5 1639 l 261
 272.5 896 l 261
 74.5 895 l 261
83.5 0 m 261
 82.5 212 l 261
 1980.5 213 l 257
 1980.5 -3 l 257
 83.5 0 l 261
118.5 1415 m 261
 118.5 1638 l 261
 1924.5 1639 l 257
 1924.5 1417 l 257
 118.5 1415 l 261
74.5 759 m 261
 74.5 986 l 261
 1979.5 986 l 257
 1979.5 759 l 257
 74.5 759 l 261
1791.5 33 m 257
 1791.5 864 l 257
 1979.5 864 l 257
 1979.5 33 l 257
 1791.5 33 l 257
1786.5 950 m 257
 1786.5 1638 l 257
 1980.5 1638 l 257
 1979.5 948 l 257
 1786.5 950 l 257
EndSplineSet
EndChar

StartChar: equal
Encoding: 61 61 48
GlifName: equal
Width: 2048
VWidth: 0
GlyphClass: 2
Flags: W
LayerCount: 2
Fore
SplineSet
615.5 914 m 257
 615.5 724 l 257
 1432.5 724 l 257
 1432.5 914 l 257
 615.5 914 l 257
615.5 540 m 257
 615.5 350 l 257
 1432.5 350 l 257
 1432.5 540 l 257
 615.5 540 l 257
EndSplineSet
PickledDataWithLists: "(dp0
."
EndChar

StartChar: exclam
Encoding: 33 33 49
GlifName: exclam
Width: 2048
VWidth: 0
GlyphClass: 2
Flags: HW
LayerCount: 2
Fore
SplineSet
952 126 m 257
 1096 126 l 257
 1096 374 l 257
 952 374 l 257
 952 126 l 257
962 611 m 257
 1090 611 l 257
 1090 1629 l 257
 962 1629 l 257
 962 611 l 257
EndSplineSet
EndChar

StartChar: f
Encoding: 102 102 50
GlifName: f
Width: 2048
VWidth: 0
GlyphClass: 2
Flags: W
LayerCount: 2
Fore
SplineSet
900 1025 m 257
 889 -410 l 257
 1089 -405 l 257
 1083 1026 l 257
 900 1025 l 257
959 1024 m 257
 959 832 l 257
 2037 831 l 257
 2037 1025 l 257
 959 1024 l 257
132 559 m 257
 132 356 l 257
 1940 356 l 257
 1940 559 l 257
 132 559 l 257
EndSplineSet
EndChar

StartChar: five
Encoding: 53 53 51
GlifName: five
Width: 2048
VWidth: 0
GlyphClass: 2
Flags: HW
LayerCount: 2
Fore
SplineSet
53.5 863 m 257
 53.5 1619 l 257
 256.5 1619 l 257
 256.5 863 l 257
 53.5 863 l 257
52.5 190 m 257
 1991.5 188 l 257
 1990.5 -2 l 257
 49.5 0 l 257
 52.5 190 l 257
54.5 1418 m 257
 54.5 1629 l 257
 1998.5 1641 l 257
 1998.5 1418 l 257
 54.5 1418 l 257
53.5 759 m 257
 53.5 986 l 257
 1988.5 986 l 257
 1988.5 759 l 257
 53.5 759 l 257
1784.5 52 m 257
 1784.5 947 l 257
 1989.5 947 l 257
 1989.5 52 l 257
 1784.5 52 l 257
EndSplineSet
EndChar

StartChar: four
Encoding: 52 52 52
GlifName: four
Width: 2048
VWidth: 0
GlyphClass: 2
Flags: HW
LayerCount: 2
Fore
SplineSet
102.5 884 m 261
 102.5 1640 l 261
 305.5 1640 l 261
 305.5 884 l 261
 102.5 884 l 261
101.5 759 m 261
 101.5 986 l 261
 1942.5 988 l 257
 1942.5 761 l 257
 101.5 759 l 261
1737.5 7 m 257
 1737.5 818 l 257
 1946.5 818 l 257
 1946.5 7 l 257
 1737.5 7 l 257
1746.5 940 m 257
 1746.5 1627 l 257
 1940.5 1627 l 257
 1940.5 940 l 257
 1746.5 940 l 257
EndSplineSet
EndChar

StartChar: g
Encoding: 103 103 53
GlifName: g
Width: 2048
VWidth: 0
GlyphClass: 2
Flags: W
LayerCount: 2
Fore
SplineSet
297 1024 m 257
 297 0 l 257
 489 0 l 257
 489 1024 l 257
 297 1024 l 257
337 1024 m 257
 337 823 l 257
 1853 823 l 257
 1853 1024 l 257
 337 1024 l 257
1681 1024 m 257
 1681 -411 l 257
 1875 -411 l 257
 1875 1024 l 257
 1681 1024 l 257
360 198 m 257
 360 -1 l 257
 1817 -1 l 257
 1817 198 l 257
 360 198 l 257
291 -214 m 257
 291 -413 l 257
 1826 -413 l 257
 1826 -214 l 257
 291 -214 l 257
EndSplineSet
EndChar

StartChar: uni0917
Encoding: 2327 2327 54
GlifName: uni0917
Width: 2048
VWidth: 0
GlyphClass: 2
Flags: W
LayerCount: 2
Fore
SplineSet
102 853 m 257
 102 1044 l 257
 301 1044 l 257
 301 853 l 257
 102 853 l 257
102 882 m 257
 1090 882 l 257
 1090 683 l 257
 102 683 l 257
 102 882 l 257
891 1548 m 257
 1090 1548 l 257
 1090 812 l 257
 891 812 l 257
 891 1548 l 257
2048 1548 m 257
 2048 1348 l 257
 261 1348 l 257
 261 1548 l 257
 2048 1548 l 257
1768 1523 m 257
 1967 1523 l 257
 1967 0 l 257
 1768 0 l 257
 1768 1523 l 257
EndSplineSet
PickledDataWithLists: "(dp0
."
EndChar

StartChar: grave
Encoding: 96 96 55
GlifName: grave
Width: 2048
VWidth: 0
GlyphClass: 2
Flags: W
LayerCount: 2
Fore
SplineSet
877 1358 m 257
 1022 1057 l 257
 1171 1129 l 257
 1025 1430 l 257
 877 1358 l 257
EndSplineSet
PickledDataWithLists: "(dp0
."
EndChar

StartChar: gravecomb
Encoding: 768 768 56
GlifName: gravecomb
Width: 2048
VWidth: 0
GlyphClass: 2
Flags: W
LayerCount: 2
Fore
SplineSet
421 907 m 257
 541 671 l 257
 632 717 l 257
 513 954 l 257
 421 907 l 257
EndSplineSet
PickledDataWithLists: "(dp0
."
EndChar

StartChar: greater
Encoding: 62 62 57
GlifName: greater
Width: 2048
VWidth: 0
GlyphClass: 2
Flags: W
LayerCount: 2
Fore
SplineSet
1436 777 m 257
 614 1013 l 257
 611 807 l 257
 1437 568 l 257
 1436 777 l 257
1436 777 m 257
 616 319 l 257
 616 122 l 257
 1437 568 l 257
 1436 777 l 257
EndSplineSet
PickledDataWithLists: "(dp0
."
EndChar

StartChar: h
Encoding: 104 104 58
GlifName: h
Width: 2048
VWidth: 0
GlyphClass: 2
Flags: W
LayerCount: 2
Fore
SplineSet
174 1541 m 257
 174 6 l 257
 374 6 l 257
 374 1541 l 257
 174 1541 l 257
311 1025 m 257
 311 826 l 257
 1842 826 l 257
 1842 1025 l 257
 311 1025 l 257
1651 1024 m 257
 1651 1 l 257
 1850 1 l 257
 1850 1024 l 257
 1651 1024 l 257
EndSplineSet
EndChar

StartChar: hyphen
Encoding: 45 45 59
GlifName: hyphen
Width: 2048
VWidth: 0
GlyphClass: 2
Flags: HW
LayerCount: 2
Fore
SplineSet
611 808 m 257
 611 600 l 257
 1437 600 l 257
 1437 808 l 257
 611 808 l 257
EndSplineSet
PickledDataWithLists: "(dp0
."
EndChar

StartChar: i
Encoding: 105 105 60
GlifName: i
Width: 2048
VWidth: 0
GlyphClass: 2
Flags: W
LayerCount: 2
Fore
SplineSet
911 1018 m 257
 911 139 l 257
 1113 139 l 257
 1113 1018 l 257
 911 1018 l 257
141 204 m 257
 141 6 l 257
 1883 6 l 257
 1883 204 l 257
 141 204 l 257
847 1369 m 257
 847 1168 l 257
 1045 1168 l 257
 1045 1369 l 257
 847 1369 l 257
191 1018 m 257
 191 818 l 257
 1067 818 l 257
 1067 1018 l 257
 191 1018 l 257
EndSplineSet
EndChar

StartChar: j
Encoding: 106 106 61
GlifName: j
Width: 2048
VWidth: 0
GlyphClass: 2
Flags: W
LayerCount: 2
Fore
SplineSet
1627 1024 m 257
 1627 -411 l 257
 1826 -411 l 257
 1826 1024 l 257
 1627 1024 l 257
197 -209 m 257
 197 -409 l 257
 1727 -409 l 257
 1727 -209 l 257
 197 -209 l 257
198 -6 m 257
 198 -351 l 257
 398 -351 l 257
 398 -6 l 257
 198 -6 l 257
1619 1413 m 257
 1619 1214 l 257
 1820 1214 l 257
 1820 1413 l 257
 1619 1413 l 257
EndSplineSet
EndChar

StartChar: k
Encoding: 107 107 62
GlifName: k
Width: 2048
VWidth: 0
GlyphClass: 2
Flags: W
LayerCount: 2
Fore
SplineSet
118 1535 m 257
 118 5 l 257
 318 5 l 257
 318 1535 l 257
 118 1535 l 257
167 516 m 257
 216 298 l 257
 1903 1023 l 257
 1686 1028 l 257
 167 516 l 257
482 596 m 257
 272 483 l 257
 1722 -3 l 257
 1960 -2 l 257
 482 596 l 257
EndSplineSet
EndChar

StartChar: l
Encoding: 108 108 63
GlifName: l
Width: 2048
VWidth: 0
GlyphClass: 2
Flags: W
LayerCount: 2
Fore
SplineSet
195 209 m 257
 195 9 l 257
 1829 9 l 257
 1829 209 l 257
 195 209 l 257
912 1548 m 257
 912 86 l 257
 1112 86 l 257
 1112 1547 l 257
 912 1548 l 257
256 1548 m 257
 256 1349 l 257
 991 1349 l 257
 991 1548 l 257
 256 1548 l 257
EndSplineSet
EndChar

StartChar: less
Encoding: 60 60 64
GlifName: less
Width: 2048
VWidth: 0
GlyphClass: 2
Flags: W
LayerCount: 2
Fore
SplineSet
613.5 777 m 257
 613.5 569 l 257
 1434.5 807 l 257
 1431.5 1013 l 257
 613.5 777 l 257
613.5 777 m 257
 613.5 569 l 257
 1429.5 122 l 257
 1429.5 319 l 257
 613.5 777 l 257
EndSplineSet
PickledDataWithLists: "(dp0
."
EndChar

StartChar: m
Encoding: 109 109 65
GlifName: m
Width: 2048
VWidth: 0
GlyphClass: 2
Flags: W
LayerCount: 2
Fore
SplineSet
110 993 m 257
 110 1 l 257
 310 1 l 257
 310 993 l 257
 110 993 l 257
925 972 m 257
 925 -2 l 257
 1125 -2 l 257
 1125 972 l 257
 925 972 l 257
1740 976 m 257
 1740 1 l 257
 1940 1 l 257
 1940 976 l 257
 1740 976 l 257
33 1021 m 257
 34 820 l 257
 1940 826 l 257
 1939 1027 l 257
 33 1021 l 257
EndSplineSet
EndChar

StartChar: n
Encoding: 110 110 66
GlifName: n
Width: 2048
VWidth: 0
GlyphClass: 2
Flags: W
LayerCount: 2
Fore
SplineSet
244 990 m 257
 244 -2 l 257
 445 -2 l 257
 445 990 l 257
 244 990 l 257
1643 976 m 257
 1643 1 l 257
 1844 1 l 257
 1844 976 l 257
 1643 976 l 257
65 1021 m 257
 66 820 l 257
 1844 826 l 257
 1843 1027 l 257
 65 1021 l 257
EndSplineSet
EndChar

StartChar: nine
Encoding: 57 57 67
GlifName: nine
Width: 2048
VWidth: 0
GlyphClass: 2
Flags: HW
LayerCount: 2
Fore
SplineSet
51.5 868 m 257
 51.5 1624 l 257
 254.5 1624 l 257
 254.5 868 l 257
 51.5 868 l 257
128.5 205 m 257
 1906.5 208 l 261
 1909.5 -1 l 261
 140.5 -1 l 257
 128.5 205 l 257
52.5 1419 m 257
 51.5 1640 l 257
 1986.5 1637 l 261
 1987.5 1416 l 261
 52.5 1419 l 257
51.5 759 m 257
 51.5 986 l 257
 1991.5 986 l 261
 1991.5 759 l 261
 51.5 759 l 257
1791.5 1 m 261
 1792.5 838 l 261
 1992.5 833 l 261
 1996.5 0 l 261
 1791.5 1 l 261
1792.5 879 m 261
 1792.5 1511 l 261
 1986.5 1511 l 261
 1991.5 879 l 261
 1792.5 879 l 261
EndSplineSet
EndChar

StartChar: numbersign
Encoding: 35 35 68
GlifName: numbersign
Width: 2048
VWidth: 0
GlyphClass: 2
Flags: HW
LayerCount: 2
Fore
SplineSet
740.5 1348 m 257
 727.5 314 l 257
 867.5 313 l 257
 880.5 1347 l 257
 740.5 1348 l 257
1151.5 1352 m 257
 1139.5 281 l 257
 1305.5 279 l 257
 1318.5 1350 l 257
 1151.5 1352 l 257
611.5 1165 m 257
 609.5 1018 l 257
 1427.5 1010 l 257
 1429.5 1157 l 257
 611.5 1165 l 257
611.5 776 m 257
 609.5 600 l 257
 1436.5 592 l 257
 1438.5 767 l 257
 611.5 776 l 257
EndSplineSet
PickledDataWithLists: "(dp0
."
EndChar

StartChar: o
Encoding: 111 111 69
GlifName: o
Width: 2048
VWidth: 0
GlyphClass: 2
Flags: W
LayerCount: 2
Fore
SplineSet
104 1024 m 257
 102 0 l 257
 306 0 l 257
 304 1022 l 257
 104 1024 l 257
1719 1024 m 257
 1719 0 l 257
 1921 0 l 257
 1921 1024 l 257
 1719 1024 l 257
227 1021 m 257
 227 822 l 257
 1812 822 l 257
 1813 1024 l 257
 227 1021 l 257
231 200 m 257
 231 1 l 257
 1803 1 l 257
 1803 200 l 257
 231 200 l 257
EndSplineSet
EndChar

StartChar: one
Encoding: 49 49 70
GlifName: one
Width: 2048
VWidth: 0
GlyphClass: 2
Flags: W
LayerCount: 2
Fore
SplineSet
882.5 5 m 257
 882.5 850 l 257
 1156.5 845 l 257
 1156.5 0 l 257
 882.5 5 l 257
889.5 935 m 257
 889.5 1640 l 257
 1165.5 1640 l 257
 1165.5 935 l 257
 889.5 935 l 257
EndSplineSet
PickledDataWithLists: "(dp0
."
EndChar

StartChar: p
Encoding: 112 112 71
GlifName: p
Width: 2048
VWidth: 0
GlyphClass: 2
Flags: W
LayerCount: 2
Fore
SplineSet
173 1203 m 257
 173 -406 l 257
 373 -406 l 257
 373 1203 l 257
 173 1203 l 257
271 1020 m 257
 271 820 l 257
 1812 821 l 257
 1810 1020 l 257
 271 1020 l 257
275 203 m 257
 278 1 l 257
 1818 1 l 257
 1815 202 l 257
 275 203 l 257
1613 876 m 257
 1613 175 l 257
 1816 175 l 257
 1811 876 l 257
 1613 876 l 257
EndSplineSet
EndChar

StartChar: parenleft
Encoding: 40 40 72
GlifName: parenleft
Width: 2048
VWidth: 0
GlyphClass: 2
Flags: HW
LayerCount: 2
Fore
SplineSet
835.5 1026 m 257
 835.5 179 l 257
 1025.5 179 l 257
 1025.5 1026 l 257
 835.5 1026 l 257
1154.5 1633 m 257
 835.5 1026 l 257
 1024.5 1028 l 257
 1184.5 1640 l 257
 1154.5 1633 l 257
835.5 179 m 257
 1179.5 -406 l 257
 1212.5 -408 l 257
 1026.5 179 l 257
 835.5 179 l 257
EndSplineSet
EndChar

StartChar: parenright
Encoding: 41 41 73
GlifName: parenright
Width: 2048
VWidth: 0
GlyphClass: 2
Flags: HW
LayerCount: 2
Fore
SplineSet
1000.5 1026 m 257
 1190.5 1026 l 257
 1190.5 179 l 257
 1000.5 179 l 257
 1000.5 1026 l 257
857.5 1630 m 257
 895.5 1629 l 257
 1190.5 1026 l 257
 1000.5 1025 l 257
 857.5 1630 l 257
1000.5 179 m 257
 1190.5 179 l 257
 886.5 -409 l 257
 857.5 -407 l 257
 1000.5 179 l 257
EndSplineSet
EndChar

StartChar: percent
Encoding: 37 37 74
GlifName: percent
Width: 2048
VWidth: 0
GlyphClass: 2
Flags: HW
LayerCount: 2
Fore
SplineSet
590.5 522 m 257
 633.5 377 l 257
 1457.5 716 l 257
 1413.5 860 l 257
 590.5 522 l 257
730.5 1148 m 257
 730.5 822 l 257
 808.5 822 l 257
 808.5 1148 l 257
 730.5 1148 l 257
730.5 1152 m 257
 730.5 1057 l 257
 1077.5 1057 l 257
 1077.5 1152 l 257
 730.5 1152 l 257
730.5 871 m 257
 730.5 789 l 257
 1074.5 789 l 257
 1074.5 871 l 257
 730.5 871 l 257
985.5 1152 m 257
 985.5 791 l 257
 1077.5 791 l 257
 1077.5 1152 l 257
 985.5 1152 l 257
1057.5 436 m 257
 1057.5 110 l 257
 1135.5 110 l 257
 1135.5 436 l 257
 1057.5 436 l 257
1057.5 440 m 257
 1057.5 345 l 257
 1404.5 345 l 257
 1404.5 440 l 257
 1057.5 440 l 257
1057.5 159 m 257
 1057.5 77 l 257
 1401.5 77 l 257
 1401.5 159 l 257
 1057.5 159 l 257
1312.5 440 m 257
 1312.5 79 l 257
 1404.5 79 l 257
 1404.5 440 l 257
 1312.5 440 l 257
EndSplineSet
PickledDataWithLists: "(dp0
."
EndChar

StartChar: period
Encoding: 46 46 75
GlifName: period
Width: 2048
VWidth: 0
GlyphClass: 2
Flags: HW
LayerCount: 2
Fore
SplineSet
891.5 246 m 257
 891.5 -1 l 257
 1156.5 -1 l 257
 1156.5 246 l 257
 891.5 246 l 257
EndSplineSet
PickledDataWithLists: "(dp0
."
EndChar

StartChar: plus
Encoding: 43 43 76
GlifName: plus
Width: 2048
VWidth: 0
GlyphClass: 2
Flags: HW
LayerCount: 2
Fore
SplineSet
896 1221 m 257
 896 165 l 257
 1121 165 l 257
 1121 1221 l 257
 896 1221 l 257
573 821 m 257
 573 613 l 257
 1475 613 l 257
 1475 821 l 257
 573 821 l 257
EndSplineSet
PickledDataWithLists: "(dp0
."
EndChar

StartChar: q
Encoding: 113 113 77
GlifName: q
Width: 2048
VWidth: 0
GlyphClass: 2
Flags: W
LayerCount: 2
Fore
SplineSet
1462 1201 m 257
 1462 -410 l 257
 1661 -410 l 257
 1661 1201 l 257
 1462 1201 l 257
189 1022 m 257
 189 823 l 257
 1638 823 l 257
 1638 1022 l 257
 189 1022 l 257
190 203 m 257
 190 2 l 257
 1606 2 l 257
 1606 203 l 257
 190 203 l 257
188 855 m 257
 188 107 l 257
 388 107 l 257
 388 855 l 257
 188 855 l 257
1501 -268 m 257
 1501 -410 l 257
 1937 -410 l 257
 1937 -268 l 257
 1501 -268 l 257
EndSplineSet
EndChar

StartChar: question
Encoding: 63 63 78
GlifName: question
Width: 2048
VWidth: 0
GlyphClass: 2
Flags: W
LayerCount: 2
Fore
SplineSet
880.5 246 m 257
 880.5 0 l 257
 1130.5 0 l 257
 1125.5 247 l 257
 880.5 246 l 257
703.5 1519 m 257
 703.5 1333 l 257
 1340.5 1333 l 257
 1340.5 1519 l 257
 703.5 1519 l 257
1150.5 1514 m 257
 1150.5 966 l 257
 1344.5 966 l 257
 1344.5 1514 l 257
 1150.5 1514 l 257
880.5 1015 m 257
 880.5 816 l 257
 1344.5 816 l 257
 1344.5 1015 l 257
 880.5 1015 l 257
880.5 1011 m 257
 880.5 392 l 257
 1128.5 392 l 257
 1128.5 1011 l 257
 880.5 1011 l 257
EndSplineSet
PickledDataWithLists: "(dp0
."
EndChar

StartChar: quotedbl
Encoding: 34 34 79
GlifName: quotedbl
Width: 2048
VWidth: 0
GlyphClass: 2
Flags: HW
LayerCount: 2
Fore
SplineSet
752 1326 m 257
 896 1326 l 257
 896 1574 l 257
 752 1574 l 257
 752 1326 l 257
1152 1326 m 257
 1296 1326 l 257
 1296 1574 l 257
 1152 1574 l 257
 1152 1326 l 257
EndSplineSet
EndChar

StartChar: quotesingle
Encoding: 39 39 80
GlifName: quotesingle
Width: 2048
VWidth: 0
GlyphClass: 2
Flags: HW
LayerCount: 2
Fore
SplineSet
959 1496 m 257
 959 1264 l 257
 1089 1264 l 257
 1089 1496 l 257
 959 1496 l 257
EndSplineSet
PickledDataWithLists: "(dp0
."
EndChar

StartChar: r
Encoding: 114 114 81
GlifName: r
Width: 2048
VWidth: 0
GlyphClass: 2
Flags: W
LayerCount: 2
Fore
SplineSet
165 1021 m 257
 165 821 l 257
 1898 821 l 257
 1898 1021 l 257
 165 1021 l 257
880 954 m 257
 880 -2 l 257
 1080 -2 l 257
 1080 954 l 257
 880 954 l 257
1698 976 m 257
 1698 650 l 257
 1898 650 l 257
 1898 976 l 257
 1698 976 l 257
EndSplineSet
EndChar

StartChar: s
Encoding: 115 115 82
GlifName: s
Width: 2048
VWidth: 0
GlyphClass: 2
Flags: W
LayerCount: 2
Fore
SplineSet
186 1024 m 257
 187 822 l 257
 1796 826 l 257
 1795 1024 l 257
 186 1024 l 257
186 1024 m 257
 187 736 l 257
 387 736 l 257
 386 1024 l 257
 186 1024 l 257
187 200 m 257
 186 1 l 257
 1793 0 l 257
 1792 201 l 257
 187 200 l 257
1591 292 m 257
 1594 12 l 257
 1793 12 l 257
 1791 293 l 257
 1591 292 l 257
187 736 m 257
 1591 292 l 257
 1791 293 l 257
 387 736 l 257
 187 736 l 257
EndSplineSet
EndChar

StartChar: semicolon
Encoding: 59 59 83
GlifName: semicolon
Width: 2048
VWidth: 0
GlyphClass: 2
Flags: W
LayerCount: 2
Fore
SplineSet
911.5 430 m 257
 911.5 201 l 257
 1159.5 201 l 257
 1159.5 430 l 257
 911.5 430 l 257
1010.5 328 m 257
 892.5 47 l 257
 1035.5 -13 l 257
 1157.5 197 l 257
 1010.5 328 l 257
888.5 871 m 257
 888.5 624 l 257
 1153.5 624 l 257
 1153.5 871 l 257
 888.5 871 l 257
EndSplineSet
PickledDataWithLists: "(dp0
."
EndChar

StartChar: seven
Encoding: 55 55 84
GlifName: seven
Width: 2048
VWidth: 0
GlyphClass: 2
Flags: HW
LayerCount: 2
Fore
SplineSet
66 1418 m 257
 66 1629 l 257
 1971 1641 l 261
 1971 1418 l 261
 66 1418 l 257
1764 866 m 261
 1755 1636 l 261
 1979 1644 l 261
 1982 867 l 261
 1764 866 l 261
1766 0 m 261
 1763 923 l 261
 1982 923 l 261
 1982 0 l 261
 1766 0 l 261
EndSplineSet
EndChar

StartChar: six
Encoding: 54 54 85
GlifName: six
Width: 2048
VWidth: 0
GlyphClass: 2
Flags: HW
LayerCount: 2
Fore
SplineSet
63.5 4 m 261
 63.5 824 l 261
 261.5 824 l 261
 261.5 4 l 261
 63.5 4 l 261
64.5 889 m 261
 51.5 1600 l 261
 255.5 1600 l 261
 255.5 888 l 261
 64.5 889 l 261
63.5 195 m 261
 1988.5 201 l 257
 1994.5 8 l 257
 65.5 0 l 261
 63.5 195 l 261
53.5 1418 m 261
 52.5 1629 l 261
 1996.5 1641 l 257
 1996.5 1418 l 257
 53.5 1418 l 261
62.5 759 m 261
 62.5 986 l 261
 1986.5 986 l 257
 1986.5 759 l 257
 62.5 759 l 261
1784.5 51 m 257
 1784.5 986 l 257
 1993.5 986 l 257
 1993.5 51 l 257
 1784.5 51 l 257
EndSplineSet
EndChar

StartChar: slash
Encoding: 47 47 86
GlifName: slash
Width: 2048
VWidth: 0
GlyphClass: 2
Flags: HW
LayerCount: 2
Fore
SplineSet
1215 1483 m 257
 645 6 l 257
 833 -67 l 257
 1403 1410 l 257
 1215 1483 l 257
EndSplineSet
PickledDataWithLists: "(dp0
."
EndChar

StartChar: t
Encoding: 116 116 88
GlifName: t
Width: 2048
VWidth: 0
GlyphClass: 2
Flags: W
LayerCount: 2
Fore
SplineSet
910 1545 m 257
 910 1 l 257
 1111 1 l 257
 1110 1545 l 257
 910 1545 l 257
918 199 m 257
 918 0 l 257
 1809 0 l 257
 1809 199 l 257
 918 199 l 257
174 1024 m 257
 175 824 l 257
 1849 824 l 257
 1848 1025 l 257
 174 1024 l 257
EndSplineSet
EndChar

StartChar: three
Encoding: 51 51 89
GlifName: three
Width: 2048
VWidth: 0
GlyphClass: 2
Flags: HW
LayerCount: 2
Fore
SplineSet
70.5 240 m 257
 1968.5 242 l 261
 1971.5 -8 l 261
 80.5 9 l 257
 70.5 240 l 257
102.5 1403 m 257
 100.5 1631 l 257
 1856.5 1640 l 261
 1856.5 1403 l 261
 102.5 1403 l 257
112.5 736 m 257
 112.5 1001 l 257
 1977.5 1001 l 261
 1977.5 736 l 261
 112.5 736 l 257
1769.5 200 m 261
 1769.5 756 l 261
 1974.5 756 l 261
 1974.5 200 l 261
 1769.5 200 l 261
1767.5 964 m 261
 1767.5 1640 l 261
 1974.5 1640 l 261
 1974.5 964 l 261
 1767.5 964 l 261
EndSplineSet
PickledDataWithLists: "(dp0
."
EndChar

StartChar: two
Encoding: 50 50 90
GlifName: two
Width: 2048
VWidth: 0
GlyphClass: 2
Flags: HW
LayerCount: 2
Fore
SplineSet
22 130 m 261
 22 1024 l 261
 330 1024 l 261
 330 130 l 261
 22 130 l 261
26 247 m 261
 1882 259 l 257
 1884 0 l 257
 32 0 l 261
 26 247 l 261
154 1433 m 261
 154 1640 l 261
 1833 1640 l 257
 1833 1433 l 257
 154 1433 l 261
324 751 m 261
 324 1024 l 261
 1807 1024 l 257
 1807 751 l 257
 324 751 l 261
1792 751 m 257
 1792 1640 l 257
 2026 1640 l 257
 2026 751 l 257
 1792 751 l 257
EndSplineSet
PickledDataWithLists: "(dp0
."
EndChar

StartChar: u
Encoding: 117 117 91
GlifName: u
Width: 2048
VWidth: 0
GlyphClass: 2
Flags: W
LayerCount: 2
Fore
SplineSet
139 1024 m 257
 139 0 l 257
 338 0 l 257
 340 1024 l 257
 139 1024 l 257
1371 1026 m 257
 1371 4 l 257
 1572 4 l 257
 1571 1026 l 257
 1371 1026 l 257
186 200 m 257
 187 0 l 257
 1888 0 l 257
 1888 200 l 257
 186 200 l 257
EndSplineSet
EndChar

StartChar: underscore
Encoding: 95 95 92
GlifName: underscore
Width: 2048
VWidth: 0
GlyphClass: 2
Flags: W
LayerCount: 2
Fore
SplineSet
-5 -5 m 257
 -9 -71 l 257
 2044 -71 l 257
 2048 -5 l 257
 -5 -5 l 257
EndSplineSet
EndChar

StartChar: uni0900
Encoding: 2304 2304 93
GlifName: uni0900
Width: 2048
VWidth: 0
GlyphClass: 2
Flags: W
LayerCount: 2
Fore
SplineSet
110 2124 m 257
 110 1639 l 257
 309 1639 l 257
 309 2124 l 257
 110 2124 l 257
156 2126 m 257
 156 1925 l 257
 1790 1925 l 257
 1790 2126 l 257
 156 2126 l 257
1714 2127 m 257
 1714 1636 l 257
 1914 1636 l 257
 1914 2127 l 257
 1714 2127 l 257
411 1865 m 257
 411 1665 l 257
 1611 1665 l 257
 1611 1865 l 257
 411 1865 l 257
-8 1546 m 257
 -4 1347 l 257
 2049 1347 l 257
 2045 1546 l 257
 -8 1546 l 257
EndSplineSet
EndChar

StartChar: uni0901
Encoding: 2305 2305 94
GlifName: uni0901
Width: 2048
VWidth: 0
GlyphClass: 2
Flags: W
LayerCount: 2
Fore
SplineSet
153 2124 m 257
 153 1639 l 257
 352 1639 l 257
 352 2124 l 257
 153 2124 l 257
199 1842 m 257
 199 1641 l 257
 1833 1641 l 257
 1833 1842 l 257
 199 1842 l 257
1757 2132 m 257
 1757 1641 l 257
 1957 1641 l 257
 1957 2132 l 257
 1757 2132 l 257
455 2095 m 257
 455 1895 l 257
 1655 1895 l 257
 1655 2095 l 257
 455 2095 l 257
-4 1546 m 257
 -4 1347 l 257
 2049 1347 l 257
 2049 1546 l 257
 -4 1546 l 257
EndSplineSet
EndChar

StartChar: uni0902
Encoding: 2306 2306 95
GlifName: uni0902
Width: 2048
VWidth: 0
GlyphClass: 2
Flags: W
LayerCount: 2
Fore
SplineSet
924 1949 m 257
 924 1749 l 257
 1124 1749 l 257
 1124 1949 l 257
 924 1949 l 257
-4 1546 m 257
 -4 1347 l 257
 2049 1347 l 257
 2049 1546 l 257
 -4 1546 l 257
EndSplineSet
EndChar

StartChar: uni0903
Encoding: 2307 2307 96
GlifName: uni0903
Width: 2048
VWidth: 0
GlyphClass: 2
Flags: W
LayerCount: 2
Fore
SplineSet
924 649 m 257
 924 449 l 257
 1124 449 l 257
 1124 649 l 257
 924 649 l 257
924 1317 m 257
 924 1117 l 257
 1124 1117 l 257
 1124 1317 l 257
 924 1317 l 257
EndSplineSet
EndChar

StartChar: uni0904
Encoding: 2308 2308 97
GlifName: uni0904
Width: 2048
VWidth: 0
GlyphClass: 2
Flags: W
LayerCount: 2
Fore
SplineSet
778 2155 m 257
 778 1836 l 257
 976 1836 l 257
 976 2155 l 257
 778 2155 l 257
777 1967 m 257
 777 1768 l 257
 1948 1768 l 257
 1948 1967 l 257
 777 1967 l 257
1749 1956 m 257
 1749 1516 l 257
 1950 1516 l 257
 1950 1956 l 257
 1749 1956 l 257
1716 1543 m 257
 1716 1343 l 257
 2048 1343 l 257
 2048 1543 l 257
 1716 1543 l 257
1777 1419 m 257
 1777 1 l 257
 1976 1 l 257
 1976 1419 l 257
 1777 1419 l 257
50 1547 m 257
 50 1348 l 257
 1085 1348 l 257
 1085 1547 l 257
 50 1547 l 257
911 1550 m 257
 911 140 l 257
 1111 140 l 257
 1111 1550 l 257
 911 1550 l 257
134 894 m 257
 134 693 l 257
 1831 693 l 257
 1831 894 l 257
 134 894 l 257
25 201 m 257
 25 1 l 257
 1111 1 l 257
 1111 201 l 257
 25 201 l 257
EndSplineSet
EndChar

StartChar: uni0905
Encoding: 2309 2309 98
GlifName: a-deva
Width: 2048
VWidth: 0
GlyphClass: 2
Flags: W
LayerCount: 2
Fore
SplineSet
1669 1543 m 257
 1669 1343 l 257
 2048 1343 l 257
 2048 1543 l 257
 1669 1543 l 257
1812 1419 m 257
 1812 1 l 257
 2011 1 l 257
 2011 1419 l 257
 1812 1419 l 257
50 1547 m 257
 50 1348 l 257
 1085 1348 l 257
 1085 1547 l 257
 50 1547 l 257
911 1550 m 257
 911 140 l 257
 1111 140 l 257
 1111 1550 l 257
 911 1550 l 257
134 894 m 257
 134 693 l 257
 1866 693 l 257
 1866 894 l 257
 134 894 l 257
25 201 m 257
 25 1 l 257
 1111 1 l 257
 1111 201 l 257
 25 201 l 257
EndSplineSet
EndChar

StartChar: uni0906
Encoding: 2310 2310 99
GlifName: aa-deva
Width: 2048
VWidth: 0
GlyphClass: 2
Flags: W
LayerCount: 2
Fore
SplineSet
1328 1548 m 257
 1328 1343 l 257
 2048 1343 l 257
 2048 1548 l 257
 1328 1548 l 257
1344 1419 m 257
 1344 1 l 257
 1543 1 l 257
 1543 1419 l 257
 1344 1419 l 257
25 1548 m 257
 25 1348 l 257
 897 1348 l 257
 897 1548 l 257
 25 1548 l 257
723 1548 m 257
 723 140 l 257
 923 140 l 257
 923 1548 l 257
 723 1548 l 257
109 894 m 257
 109 693 l 257
 1443 693 l 257
 1443 894 l 257
 109 894 l 257
0 201 m 257
 0 1 l 257
 923 1 l 257
 923 201 l 257
 0 201 l 257
1843 1420 m 257
 1843 2 l 257
 2042 2 l 257
 2042 1420 l 257
 1843 1420 l 257
EndSplineSet
PickledDataWithLists: "(dp0
."
EndChar

StartChar: uni0907
Encoding: 2311 2311 100
GlifName: uni0907
Width: 2048
VWidth: 0
GlyphClass: 2
Flags: W
LayerCount: 2
Fore
SplineSet
-12 1556 m 257
 -12 1355 l 257
 2048 1355 l 257
 2048 1556 l 257
 -12 1556 l 257
1058 1553 m 257
 1058 1110 l 257
 1258 1110 l 257
 1258 1553 l 257
 1058 1553 l 257
165 1205 m 257
 165 1004 l 257
 1258 1004 l 257
 1258 1205 l 257
 165 1205 l 257
165 1181 m 257
 165 738 l 257
 335 738 l 257
 335 1181 l 257
 165 1181 l 257
165 881 m 257
 165 681 l 257
 1272 681 l 257
 1272 881 l 257
 165 881 l 257
1151 881 m 257
 1151 285 l 257
 1350 285 l 257
 1350 881 l 257
 1151 881 l 257
143 298 m 257
 143 97 l 257
 1353 97 l 257
 1353 298 l 257
 143 298 l 257
259 298 m 257
 259 -244 l 257
 459 -244 l 257
 459 298 l 257
 259 298 l 257
EndSplineSet
EndChar

StartChar: uni0908
Encoding: 2312 2312 101
GlifName: uni0908
Width: 2048
VWidth: 0
GlyphClass: 2
Flags: W
LayerCount: 2
Fore
SplineSet
-12 1556 m 257
 -12 1355 l 257
 2048 1355 l 257
 2048 1556 l 257
 -12 1556 l 257
1058 1553 m 257
 1058 1110 l 257
 1258 1110 l 257
 1258 1553 l 257
 1058 1553 l 257
165 1205 m 257
 165 1004 l 257
 1258 1004 l 257
 1258 1205 l 257
 165 1205 l 257
165 1181 m 257
 165 738 l 257
 365 738 l 257
 365 1181 l 257
 165 1181 l 257
165 881 m 257
 165 681 l 257
 1272 681 l 257
 1272 881 l 257
 165 881 l 257
1169 881 m 257
 1169 285 l 257
 1350 285 l 257
 1350 881 l 257
 1169 881 l 257
143 298 m 257
 143 97 l 257
 1353 97 l 257
 1353 298 l 257
 143 298 l 257
259 298 m 257
 259 -244 l 257
 482 -244 l 257
 482 298 l 257
 259 298 l 257
268 1770 m 257
 1027 1423 l 257
 1190 1539 l 257
 430 1886 l 257
 268 1770 l 257
EndSplineSet
EndChar

StartChar: uni0909
Encoding: 2313 2313 102
GlifName: uni0909
Width: 2048
VWidth: 0
GlyphClass: 2
Flags: W
LayerCount: 2
Fore
SplineSet
-4 1548 m 257
 -4 1349 l 257
 2048 1349 l 257
 2048 1548 l 257
 -4 1548 l 257
892 1530 m 257
 892 1001 l 257
 1091 1001 l 257
 1091 1530 l 257
 892 1530 l 257
235 1044 m 257
 235 845 l 257
 1589 845 l 257
 1589 1044 l 257
 235 1044 l 257
1390 994 m 257
 1390 8 l 257
 1590 8 l 257
 1590 994 l 257
 1390 994 l 257
130 201 m 257
 130 2 l 257
 1579 2 l 257
 1579 201 l 257
 130 201 l 257
130 363 m 257
 130 36 l 257
 330 36 l 257
 330 363 l 257
 130 363 l 257
EndSplineSet
EndChar

StartChar: uni090A
Encoding: 2314 2314 103
GlifName: uni090A_
Width: 2048
VWidth: 0
GlyphClass: 2
Flags: W
LayerCount: 2
Fore
SplineSet
-4 1548 m 257
 -4 1349 l 257
 2057 1349 l 257
 2057 1548 l 257
 -4 1548 l 257
820 1530 m 257
 820 1001 l 257
 1019 1001 l 257
 1019 1530 l 257
 820 1530 l 257
151 1044 m 257
 151 845 l 257
 1874 845 l 257
 1874 1044 l 257
 151 1044 l 257
1187 994 m 257
 1187 11 l 257
 1387 11 l 257
 1387 994 l 257
 1187 994 l 257
46 204 m 257
 46 5 l 257
 1384 5 l 257
 1384 204 l 257
 46 204 l 257
46 366 m 257
 46 39 l 257
 246 39 l 257
 246 366 l 257
 46 366 l 257
1675 946 m 257
 1675 217 l 257
 1874 217 l 257
 1874 946 l 257
 1675 946 l 257
EndSplineSet
EndChar

StartChar: uni090B
Encoding: 2315 2315 104
GlifName: uni090B_
Width: 2048
VWidth: 0
GlyphClass: 2
Flags: W
LayerCount: 2
Fore
SplineSet
8 1546 m 257
 8 1347 l 257
 2022 1347 l 257
 2022 1546 l 257
 8 1546 l 257
1012 1533 m 257
 1012 0 l 257
 1211 0 l 257
 1211 1533 l 257
 1012 1533 l 257
22 1043 m 257
 22 844 l 257
 326 845 l 257
 326 1044 l 257
 22 1043 l 257
1011 496 m 257
 118 329 l 257
 200 136 l 257
 1093 303 l 257
 1011 496 l 257
326 1044 m 257
 326 846 l 257
 1098 742 l 257
 1108 944 l 257
 326 1044 l 257
1195 897 m 257
 1195 699 l 257
 2010 699 l 257
 2010 897 l 257
 1195 897 l 257
1688 897 m 257
 1688 262 l 257
 1887 262 l 257
 1887 897 l 257
 1688 897 l 257
1764 464 m 257
 1764 264 l 257
 2028 264 l 257
 2028 464 l 257
 1764 464 l 257
EndSplineSet
EndChar

StartChar: uni090C
Encoding: 2316 2316 105
GlifName: uni090C_
Width: 2048
VWidth: 0
GlyphClass: 2
Flags: W
LayerCount: 2
Fore
SplineSet
-16 1551 m 257
 -16 1352 l 257
 2048 1352 l 257
 2048 1551 l 257
 -16 1551 l 257
1057 1551 m 257
 1057 689 l 257
 1257 689 l 257
 1257 1551 l 257
 1057 1551 l 257
1756 791 m 257
 42 791 l 257
 42 590 l 257
 1756 590 l 257
 1756 791 l 257
42 777 m 257
 42 252 l 257
 243 252 l 257
 243 777 l 257
 42 777 l 257
693 791 m 257
 693 433 l 257
 894 433 l 257
 894 791 l 257
 693 791 l 257
1545 792 m 257
 1545 73 l 257
 1745 73 l 257
 1745 792 l 257
 1545 792 l 257
1620 259 m 257
 1620 71 l 257
 2046 71 l 257
 2046 259 l 257
 1620 259 l 257
EndSplineSet
EndChar

StartChar: uni090D
Encoding: 2317 2317 106
GlifName: uni090D_
Width: 2048
VWidth: 0
GlyphClass: 2
Flags: W
LayerCount: 2
Fore
SplineSet
153 2124 m 257
 153 1639 l 257
 352 1639 l 257
 352 2124 l 257
 153 2124 l 257
199 1842 m 257
 199 1641 l 257
 1833 1641 l 257
 1833 1842 l 257
 199 1842 l 257
1757 2132 m 257
 1757 1641 l 257
 1957 1641 l 257
 1957 2132 l 257
 1757 2132 l 257
-1 1548 m 257
 -1 1348 l 257
 2049 1348 l 257
 2049 1548 l 257
 -1 1548 l 257
1747 1548 m 257
 1747 782 l 257
 1947 782 l 257
 1947 1548 l 257
 1747 1548 l 257
1654 979 m 257
 1654 779 l 257
 1947 779 l 257
 1947 979 l 257
 1654 979 l 257
138 1542 m 257
 138 338 l 257
 338 338 l 257
 338 1542 l 257
 138 1542 l 257
138 497 m 257
 138 297 l 257
 1250 297 l 257
 1250 497 l 257
 138 497 l 257
1057 473 m 257
 1057 -98 l 257
 1257 -98 l 257
 1257 473 l 257
 1057 473 l 257
383 102 m 257
 383 -98 l 257
 1255 -98 l 257
 1255 102 l 257
 383 102 l 257
EndSplineSet
EndChar

StartChar: uni090E
Encoding: 2318 2318 107
GlifName: uni090E_
Width: 2048
VWidth: 0
GlyphClass: 2
Flags: W
LayerCount: 2
Fore
SplineSet
778 2155 m 257
 778 1836 l 257
 976 1836 l 257
 976 2155 l 257
 778 2155 l 257
777 1967 m 257
 777 1768 l 257
 1948 1768 l 257
 1948 1967 l 257
 777 1967 l 257
1749 1956 m 257
 1749 1516 l 257
 1950 1516 l 257
 1950 1956 l 257
 1749 1956 l 257
-1 1548 m 257
 -1 1348 l 257
 2026 1348 l 257
 2026 1548 l 257
 -1 1548 l 257
1724 1548 m 257
 1724 782 l 257
 1924 782 l 257
 1924 1548 l 257
 1724 1548 l 257
1631 979 m 257
 1631 779 l 257
 1924 779 l 257
 1924 979 l 257
 1631 979 l 257
138 1542 m 257
 138 338 l 257
 338 338 l 257
 338 1542 l 257
 138 1542 l 257
138 497 m 257
 138 297 l 257
 1238 297 l 257
 1238 497 l 257
 138 497 l 257
1045 473 m 257
 1045 -98 l 257
 1245 -98 l 257
 1245 473 l 257
 1045 473 l 257
383 102 m 257
 383 -98 l 257
 1243 -98 l 257
 1243 102 l 257
 383 102 l 257
EndSplineSet
EndChar

StartChar: uni090F
Encoding: 2319 2319 108
GlifName: uni090F_
Width: 2048
VWidth: 0
GlyphClass: 2
Flags: W
LayerCount: 2
Fore
SplineSet
-1 1548 m 257
 -1 1348 l 257
 2026 1348 l 257
 2026 1548 l 257
 -1 1548 l 257
1724 1548 m 257
 1724 782 l 257
 1924 782 l 257
 1924 1548 l 257
 1724 1548 l 257
1631 979 m 257
 1631 779 l 257
 1924 779 l 257
 1924 979 l 257
 1631 979 l 257
138 1542 m 257
 138 338 l 257
 338 338 l 257
 338 1542 l 257
 138 1542 l 257
138 497 m 257
 138 297 l 257
 1238 297 l 257
 1238 497 l 257
 138 497 l 257
1045 473 m 257
 1045 -98 l 257
 1245 -98 l 257
 1245 473 l 257
 1045 473 l 257
383 102 m 257
 383 -98 l 257
 1243 -98 l 257
 1243 102 l 257
 383 102 l 257
EndSplineSet
EndChar

StartChar: uni0910
Encoding: 2320 2320 109
GlifName: uni0910
Width: 2048
VWidth: 0
GlyphClass: 2
Flags: W
LayerCount: 2
Fore
SplineSet
3 1548 m 257
 3 1348 l 257
 2048 1348 l 257
 2048 1548 l 257
 3 1548 l 257
1746 1545 m 257
 1746 779 l 257
 1946 779 l 257
 1946 1545 l 257
 1746 1545 l 257
1653 979 m 257
 1653 779 l 257
 1946 779 l 257
 1946 979 l 257
 1653 979 l 257
138 1542 m 257
 138 338 l 257
 338 338 l 257
 338 1542 l 257
 138 1542 l 257
138 497 m 257
 138 297 l 257
 1238 297 l 257
 1238 497 l 257
 138 497 l 257
1045 473 m 257
 1045 -98 l 257
 1245 -98 l 257
 1245 473 l 257
 1045 473 l 257
383 102 m 257
 383 -98 l 257
 1243 -98 l 257
 1243 102 l 257
 383 102 l 257
442 1883 m 257
 1780 1433 l 257
 1944 1547 l 257
 606 1998 l 257
 442 1883 l 257
EndSplineSet
EndChar

StartChar: uni0911
Encoding: 2321 2321 110
GlifName: uni0911
Width: 2048
VWidth: 0
GlyphClass: 2
Flags: W
LayerCount: 2
Fore
SplineSet
1328 1548 m 257
 1328 1343 l 257
 2040 1343 l 257
 2040 1548 l 257
 1328 1548 l 257
1344 1419 m 257
 1344 1 l 257
 1543 1 l 257
 1543 1419 l 257
 1344 1419 l 257
25 1548 m 257
 25 1348 l 257
 897 1348 l 257
 897 1548 l 257
 25 1548 l 257
723 1548 m 257
 723 140 l 257
 923 140 l 257
 923 1548 l 257
 723 1548 l 257
109 894 m 257
 109 693 l 257
 1443 693 l 257
 1443 894 l 257
 109 894 l 257
0 201 m 257
 0 1 l 257
 923 1 l 257
 923 201 l 257
 0 201 l 257
1835 1420 m 257
 1835 2 l 257
 2034 2 l 257
 2034 1420 l 257
 1835 1420 l 257
1326 2085 m 257
 1326 1639 l 257
 1526 1639 l 257
 1526 2085 l 257
 1326 2085 l 257
1332 1842 m 257
 1332 1641 l 257
 2047 1641 l 257
 2047 1842 l 257
 1332 1842 l 257
1847 2083 m 257
 1847 1641 l 257
 2047 1641 l 257
 2047 2083 l 257
 1847 2083 l 257
EndSplineSet
EndChar

StartChar: uni0912
Encoding: 2322 2322 111
GlifName: oS_hort-deva
Width: 2048
VWidth: 0
GlyphClass: 2
Flags: W
LayerCount: 2
Fore
SplineSet
1328 1543 m 257
 1328 1343 l 257
 2048 1343 l 257
 2048 1543 l 257
 1328 1543 l 257
1349 1419 m 257
 1349 1 l 257
 1548 1 l 257
 1548 1419 l 257
 1349 1419 l 257
25 1548 m 257
 25 1348 l 257
 897 1348 l 257
 897 1548 l 257
 25 1548 l 257
723 1548 m 257
 723 140 l 257
 923 140 l 257
 923 1548 l 257
 723 1548 l 257
109 894 m 257
 109 693 l 257
 1443 693 l 257
 1443 894 l 257
 109 894 l 257
0 201 m 257
 0 1 l 257
 923 1 l 257
 923 201 l 257
 0 201 l 257
1843 1420 m 257
 1843 2 l 257
 2042 2 l 257
 2042 1420 l 257
 1843 1420 l 257
1066 2155 m 257
 1066 1836 l 257
 1264 1836 l 257
 1264 2155 l 257
 1066 2155 l 257
1065 1967 m 257
 1065 1768 l 257
 1980 1768 l 257
 1980 1967 l 257
 1065 1967 l 257
1781 1956 m 257
 1781 1516 l 257
 1982 1516 l 257
 1982 1956 l 257
 1781 1956 l 257
EndSplineSet
PickledDataWithLists: "(dp0
."
EndChar

StartChar: uni0913
Encoding: 2323 2323 112
GlifName: uni0913
Width: 2048
VWidth: 0
GlyphClass: 2
Flags: W
LayerCount: 2
Fore
SplineSet
1328 1548 m 257
 1328 1343 l 257
 2016 1343 l 257
 2016 1548 l 257
 1328 1548 l 257
1344 1419 m 257
 1344 1 l 257
 1543 1 l 257
 1543 1419 l 257
 1344 1419 l 257
25 1548 m 257
 25 1348 l 257
 885 1348 l 257
 885 1548 l 257
 25 1548 l 257
711 1548 m 257
 711 140 l 257
 911 140 l 257
 911 1548 l 257
 711 1548 l 257
109 894 m 257
 109 693 l 257
 1443 693 l 257
 1443 894 l 257
 109 894 l 257
0 201 m 257
 0 1 l 257
 911 1 l 257
 911 201 l 257
 0 201 l 257
1811 1423 m 257
 1811 5 l 257
 2010 5 l 257
 2010 1423 l 257
 1811 1423 l 257
1439 1768 m 257
 1800 1458 l 257
 1978 1550 l 257
 1616 1861 l 257
 1439 1768 l 257
EndSplineSet
EndChar

StartChar: uni0914
Encoding: 2324 2324 113
GlifName: uni0914
Width: 2048
VWidth: 0
GlyphClass: 2
Flags: W
LayerCount: 2
Fore
SplineSet
1328 1548 m 257
 1328 1343 l 257
 2016 1343 l 257
 2016 1548 l 257
 1328 1548 l 257
1344 1419 m 257
 1344 1 l 257
 1543 1 l 257
 1543 1419 l 257
 1344 1419 l 257
25 1548 m 257
 25 1348 l 257
 885 1348 l 257
 885 1548 l 257
 25 1548 l 257
711 1548 m 257
 711 140 l 257
 911 140 l 257
 911 1548 l 257
 711 1548 l 257
109 894 m 257
 109 693 l 257
 1443 693 l 257
 1443 894 l 257
 109 894 l 257
0 201 m 257
 0 1 l 257
 911 1 l 257
 911 201 l 257
 0 201 l 257
1811 1420 m 257
 1811 2 l 257
 2010 2 l 257
 2010 1420 l 257
 1811 1420 l 257
1139 1750 m 257
 1419 1540 l 257
 1750 1523 l 257
 1275 1903 l 257
 1139 1750 l 257
1728 1949 m 257
 1791 1522 l 257
 2003 1547 l 257
 1925 1988 l 257
 1728 1949 l 257
EndSplineSet
EndChar

StartChar: uni0915
Encoding: 2325 2325 114
GlifName: ka-deva
Width: 2048
VWidth: 0
GlyphClass: 2
Flags: W
LayerCount: 2
Fore
SplineSet
0 1547 m 257
 0 1346 l 257
 2038 1343 l 257
 2038 1544 l 257
 0 1547 l 257
1103 1516 m 257
 1103 10 l 257
 1305 10 l 257
 1305 1516 l 257
 1103 1516 l 257
132 1029 m 257
 132 829 l 257
 1195 829 l 257
 1195 1029 l 257
 132 1029 l 257
132 987 m 257
 126 439 l 257
 296 443 l 257
 298 989 l 257
 132 987 l 257
150 597 m 257
 150 405 l 257
 1157 401 l 257
 1157 604 l 257
 150 597 l 257
1209 947 m 257
 1209 746 l 257
 1945 746 l 257
 1945 947 l 257
 1209 947 l 257
1746 872 m 257
 1740 587 l 257
 1942 587 l 257
 1945 879 l 257
 1746 872 l 257
EndSplineSet
PickledDataWithLists: "(dp0
."
EndChar

StartChar: uni0916
Encoding: 2326 2326 115
GlifName: uni0916
Width: 2048
VWidth: 0
GlyphClass: 2
Flags: W
LayerCount: 2
Fore
SplineSet
-8 1549 m 257
 -8 1349 l 257
 2048 1349 l 257
 2048 1549 l 257
 -8 1549 l 257
1716 1514 m 257
 1716 0 l 257
 1916 0 l 257
 1916 1514 l 257
 1716 1514 l 257
1029 979 m 257
 1029 779 l 257
 1457 779 l 257
 1457 979 l 257
 1029 979 l 257
999 979 m 257
 999 457 l 257
 1199 457 l 257
 1199 979 l 257
 999 979 l 257
999 568 m 257
 999 368 l 257
 1768 368 l 257
 1768 568 l 257
 999 568 l 257
314 1441 m 257
 313 120 l 257
 513 120 l 257
 514 1441 l 257
 314 1441 l 257
9 734 m 257
 9 534 l 257
 513 534 l 257
 513 734 l 257
 9 734 l 257
313 270 m 257
 313 70 l 257
 1853 70 l 257
 1853 270 l 257
 313 270 l 257
EndSplineSet
EndChar

StartChar: v
Encoding: 118 118 116
GlifName: v
Width: 2048
VWidth: 0
GlyphClass: 2
Flags: W
LayerCount: 2
Fore
SplineSet
181 1022 m 257
 910 0 l 257
 1117 1 l 257
 380 1025 l 257
 181 1022 l 257
1643 1021 m 257
 908 0 l 257
 1115 3 l 257
 1843 1022 l 257
 1643 1021 l 257
EndSplineSet
EndChar

StartChar: w
Encoding: 119 119 117
GlifName: w
Width: 2048
VWidth: 0
GlyphClass: 2
Flags: W
LayerCount: 2
Fore
SplineSet
103 1023 m 257
 104 1 l 257
 303 0 l 257
 302 1023 l 257
 103 1023 l 257
1722 1028 m 257
 1722 12 l 257
 1921 12 l 257
 1921 1028 l 257
 1722 1028 l 257
908 610 m 257
 909 1 l 257
 1108 1 l 257
 1109 610 l 257
 908 610 l 257
102 276 m 257
 104 1 l 257
 1921 0 l 257
 1921 276 l 257
 102 276 l 257
EndSplineSet
EndChar

StartChar: x
Encoding: 120 120 118
GlifName: x
Width: 2048
VWidth: 0
GlyphClass: 2
Flags: W
LayerCount: 2
Fore
SplineSet
91 0 m 257
 1728 1025 l 257
 1927 1023 l 257
 292 2 l 257
 91 0 l 257
93 1027 m 257
 295 1025 l 257
 1934 -2 l 257
 1735 -1 l 257
 93 1027 l 257
EndSplineSet
EndChar

StartChar: y
Encoding: 121 121 119
GlifName: y
Width: 2048
VWidth: 0
GlyphClass: 2
Flags: W
LayerCount: 2
Fore
SplineSet
1680 1023 m 257
 1680 -410 l 257
 1880 -410 l 257
 1880 1023 l 257
 1680 1023 l 257
147 -211 m 257
 147 -410 l 257
 1864 -410 l 257
 1864 -211 l 257
 147 -211 l 257
147 1023 m 257
 147 264 l 257
 347 264 l 257
 347 1023 l 257
 147 1023 l 257
147 464 m 257
 147 264 l 257
 1765 264 l 257
 1765 464 l 257
 147 464 l 257
EndSplineSet
EndChar

StartChar: z
Encoding: 122 122 120
GlifName: z
Width: 2048
VWidth: 0
GlyphClass: 2
Flags: W
LayerCount: 2
Fore
SplineSet
98 1027 m 257
 98 826 l 257
 1926 826 l 257
 1926 1027 l 257
 98 1027 l 257
98 201 m 257
 98 1 l 257
 1926 1 l 257
 1926 201 l 257
 98 201 l 257
1634 826 m 257
 98 201 l 257
 404 201 l 257
 1926 826 l 257
 1634 826 l 257
EndSplineSet
EndChar

StartChar: zero
Encoding: 48 48 121
GlifName: zero
Width: 2048
VWidth: 0
GlyphClass: 2
Flags: W
LayerCount: 2
Fore
SplineSet
127 1 m 257
 127 963 l 257
 329 962 l 257
 329 0 l 257
 127 1 l 257
126 883 m 257
 126 1639 l 257
 330 1639 l 257
 330 883 l 257
 126 883 l 257
169 207 m 257
 1890 208 l 257
 1892 0 l 257
 171 3 l 257
 169 207 l 257
127 1418 m 257
 125 1638 l 257
 1893 1641 l 257
 1893 1418 l 257
 127 1418 l 257
1750 -1 m 257
 1750 950 l 257
 1948 950 l 257
 1948 0 l 257
 1750 -1 l 257
1751 884 m 257
 1751 1640 l 257
 1945 1640 l 257
 1945 884 l 257
 1751 884 l 257
460 1013 m 257
 460 747 l 257
 1634 747 l 257
 1634 1013 l 257
 460 1013 l 257
EndSplineSet
EndChar

StartChar: uni0918
Encoding: 2328 2328 122
GlifName: uni0918
Width: 2048
VWidth: 0
GlyphClass: 2
Flags: W
LayerCount: 2
Fore
SplineSet
1 1554 m 257
 1 1354 l 257
 2048 1354 l 257
 2048 1554 l 257
 1 1554 l 257
1727 1522 m 257
 1727 13 l 257
 1927 13 l 257
 1927 1522 l 257
 1727 1522 l 257
173 1515 m 257
 173 883 l 257
 372 883 l 257
 372 1515 l 257
 173 1515 l 257
267 921 m 257
 266 721 l 257
 1022 717 l 257
 1023 917 l 257
 267 921 l 257
179 469 m 257
 179 269 l 257
 1903 269 l 257
 1903 469 l 257
 179 469 l 257
173 269 m 257
 372 269 l 257
 372 764 l 257
 173 764 l 257
 173 269 l 257
EndSplineSet
EndChar

StartChar: uni0919
Encoding: 2329 2329 123
GlifName: uni0919
Width: 2048
VWidth: 0
GlyphClass: 2
Flags: W
LayerCount: 2
Fore
SplineSet
-4 1554 m 257
 -4 1354 l 257
 2048 1354 l 257
 2048 1554 l 257
 -4 1554 l 257
1021 1543 m 257
 1021 1026 l 257
 1221 1026 l 257
 1221 1543 l 257
 1021 1543 l 257
1212 1226 m 257
 226 1226 l 257
 226 1026 l 257
 1212 1026 l 257
 1212 1226 l 257
225 1083 m 257
 225 629 l 257
 430 629 l 257
 430 1083 l 257
 225 1083 l 257
225 820 m 257
 225 620 l 257
 1298 620 l 257
 1298 820 l 257
 225 820 l 257
1098 680 m 257
 1098 29 l 257
 1298 29 l 257
 1298 680 l 257
 1098 680 l 257
112 201 m 257
 112 0 l 257
 1299 0 l 257
 1299 201 l 257
 112 201 l 257
112 423 m 257
 112 8 l 257
 313 8 l 257
 313 423 l 257
 112 423 l 257
1325 1037 m 257
 1325 890 l 257
 1482 890 l 257
 1482 1037 l 257
 1325 1037 l 257
EndSplineSet
EndChar

StartChar: uni091A
Encoding: 2330 2330 124
GlifName: uni091A_
Width: 2048
VWidth: 0
GlyphClass: 2
Flags: W
LayerCount: 2
Fore
SplineSet
0 1556 m 257
 0 1356 l 257
 2048 1356 l 257
 2048 1556 l 257
 0 1556 l 257
1662 1553 m 257
 1662 -2 l 257
 1862 -2 l 257
 1862 1553 l 257
 1662 1553 l 257
1829 280 m 257
 1829 480 l 257
 808 480 l 257
 808 280 l 257
 1829 280 l 257
808 837 m 257
 808 421 l 257
 1008 421 l 257
 1008 837 l 257
 808 837 l 257
72 991 m 257
 72 791 l 257
 1080 791 l 257
 1080 991 l 257
 72 991 l 257
EndSplineSet
EndChar

StartChar: uni091B
Encoding: 2331 2331 125
GlifName: uni091B_
Width: 2048
VWidth: 0
GlyphClass: 2
Flags: W
LayerCount: 2
Fore
SplineSet
-6 1555 m 257
 -6 1355 l 257
 2048 1355 l 257
 2048 1555 l 257
 -6 1555 l 257
1233 1130 m 257
 92 1130 l 257
 92 931 l 257
 1233 931 l 257
 1233 1130 l 257
89 1130 m 257
 89 584 l 257
 289 584 l 257
 289 1130 l 257
 89 1130 l 257
167 639 m 257
 167 439 l 257
 817 439 l 257
 817 639 l 257
 167 639 l 257
84 493 m 257
 84 0 l 257
 284 0 l 257
 284 493 l 257
 84 493 l 257
84 199 m 257
 84 0 l 257
 1519 0 l 257
 1519 199 l 257
 84 199 l 257
1318 6 m 257
 1519 6 l 257
 1519 1515 l 257
 1318 1515 l 257
 1318 6 l 257
1459 1007 m 257
 1459 808 l 257
 2029 808 l 257
 2029 1007 l 257
 1459 1007 l 257
1828 868 m 257
 1828 471 l 257
 2029 471 l 257
 2029 868 l 257
 1828 868 l 257
EndSplineSet
EndChar

StartChar: uni091C
Encoding: 2332 2332 126
GlifName: uni091C_
Width: 2048
VWidth: 0
GlyphClass: 2
Flags: W
LayerCount: 2
Fore
SplineSet
-34 1551 m 257
 -34 1350 l 257
 2048 1350 l 257
 2048 1551 l 257
 -34 1551 l 257
1702 1551 m 257
 1702 -12 l 257
 1901 -12 l 257
 1901 1551 l 257
 1702 1551 l 257
909 860 m 257
 909 663 l 257
 1835 663 l 257
 1835 860 l 257
 909 860 l 257
863 860 m 257
 863 413 l 257
 1063 413 l 257
 1063 860 l 257
 863 860 l 257
41 567 m 257
 41 367 l 257
 1063 367 l 257
 1063 567 l 257
 41 567 l 257
41 855 m 257
 41 509 l 257
 241 509 l 257
 241 855 l 257
 41 855 l 257
EndSplineSet
EndChar

StartChar: uni091D
Encoding: 2333 2333 127
GlifName: uni091D_
Width: 2048
VWidth: 0
GlyphClass: 2
Flags: W
LayerCount: 2
Fore
SplineSet
-18 1549 m 257
 -18 1349 l 257
 2047 1349 l 257
 2047 1549 l 257
 -18 1549 l 257
1703 1539 m 257
 1703 -5 l 257
 1904 -5 l 257
 1904 1539 l 257
 1703 1539 l 257
959 1537 m 257
 959 1024 l 257
 1158 1024 l 257
 1158 1537 l 257
 959 1537 l 257
125 1223 m 257
 125 1024 l 257
 1158 1024 l 257
 1158 1223 l 257
 125 1223 l 257
125 1085 m 257
 125 651 l 257
 325 651 l 257
 325 1085 l 257
 125 1085 l 257
125 837 m 257
 125 638 l 257
 1898 638 l 257
 1898 837 l 257
 125 837 l 257
930 691 m 257
 930 7 l 257
 1130 7 l 257
 1130 691 l 257
 930 691 l 257
125 203 m 257
 125 3 l 257
 1130 3 l 257
 1130 203 l 257
 125 203 l 257
125 63 m 257
 125 -148 l 257
 325 -148 l 257
 325 63 l 257
 125 63 l 257
EndSplineSet
EndChar

StartChar: uni091E
Encoding: 2334 2334 128
GlifName: uni091E_
Width: 2048
VWidth: 0
GlyphClass: 2
Flags: W
LayerCount: 2
Fore
SplineSet
-5 1548 m 257
 -5 1348 l 257
 2048 1348 l 257
 2048 1548 l 257
 -5 1548 l 257
1754 1538 m 257
 1754 -8 l 257
 1954 -8 l 257
 1954 1538 l 257
 1754 1538 l 257
977 737 m 257
 977 537 l 257
 1851 537 l 257
 1851 737 l 257
 977 737 l 257
84 960 m 257
 84 760 l 257
 954 760 l 257
 954 960 l 257
 84 960 l 257
923 960 m 257
 923 316 l 257
 1123 316 l 257
 1123 960 l 257
 923 960 l 257
61 460 m 257
 61 260 l 257
 1123 260 l 257
 1123 460 l 257
 61 460 l 257
EndSplineSet
EndChar

StartChar: uni091F
Encoding: 2335 2335 129
Width: 2048
VWidth: 0
Flags: HW
LayerCount: 2
Fore
SplineSet
10 1549 m 257
 10 1348 l 257
 2066 1348 l 261
 2066 1549 l 261
 10 1549 l 257
1611 1528 m 261
 1611 988 l 261
 1811 988 l 261
 1811 1528 l 261
 1611 1528 l 261
1811 1023 m 261
 120 1023 l 257
 120 822 l 257
 1811 822 l 261
 1811 1023 l 261
99 1024 m 257
 99 5 l 257
 299 5 l 257
 299 1024 l 257
 99 1024 l 257
99 201 m 257
 99 0 l 257
 1854 0 l 261
 1854 201 l 261
 99 201 l 257
EndSplineSet
EndChar

StartChar: uni0920
Encoding: 2336 2336 130
Width: 2048
VWidth: 0
Flags: HW
LayerCount: 2
Fore
SplineSet
0 1551 m 257
 0 1350 l 257
 2048 1350 l 257
 2048 1551 l 257
 0 1551 l 257
912 1484 m 257
 920 1023 l 257
 1121 1023 l 257
 1120 1484 l 257
 912 1484 l 257
85 1035 m 257
 85 834 l 257
 1985 834 l 257
 1985 1035 l 257
 85 1035 l 257
72 1035 m 257
 72 13 l 257
 272 13 l 257
 272 1035 l 257
 72 1035 l 257
1785 1035 m 257
 1785 -2 l 257
 1985 -2 l 257
 1985 1035 l 257
 1785 1035 l 257
73 198 m 257
 73 -3 l 257
 1965 -3 l 257
 1965 198 l 257
 73 198 l 257
EndSplineSet
EndChar

StartChar: uni0921
Encoding: 2337 2337 131
Width: 2048
VWidth: 0
Flags: HW
LayerCount: 2
Fore
SplineSet
2 1549 m 257
 2 1345 l 257
 2048 1345 l 257
 2048 1549 l 257
 2 1549 l 257
896 1545 m 261
 896 1014 l 261
 1095 1014 l 261
 1095 1545 l 261
 896 1545 l 261
896 1025 m 261
 896 815 l 261
 1946 815 l 257
 1946 1025 l 257
 896 1025 l 261
1773 1025 m 257
 1773 5 l 257
 1972 5 l 257
 1972 1025 l 257
 1773 1025 l 257
62 200 m 257
 62 0 l 257
 1972 0 l 257
 1972 200 l 257
 62 200 l 257
62 331 m 257
 62 5 l 257
 262 5 l 257
 262 331 l 257
 62 331 l 257
EndSplineSet
EndChar

StartChar: uni0922
Encoding: 2338 2338 132
Width: 2048
VWidth: 0
Flags: HW
LayerCount: 2
Fore
SplineSet
10 1549 m 257
 10 1348 l 257
 2048 1348 l 261
 2048 1549 l 261
 10 1549 l 257
1593 1528 m 261
 1593 988 l 261
 1793 988 l 261
 1793 1528 l 261
 1593 1528 l 261
1793 1023 m 261
 120 1023 l 257
 120 822 l 257
 1793 822 l 261
 1793 1023 l 261
99 1024 m 257
 99 5 l 257
 299 5 l 257
 299 1024 l 257
 99 1024 l 257
99 201 m 257
 99 0 l 257
 1836 0 l 261
 1836 201 l 261
 99 201 l 257
1637 544 m 261
 1637 -2 l 261
 1838 -2 l 261
 1838 544 l 261
 1637 544 l 261
1584 547 m 261
 1584 347 l 261
 1836 347 l 261
 1836 547 l 261
 1584 547 l 261
EndSplineSet
EndChar

StartChar: uni0923
Encoding: 2339 2339 133
Width: 2048
VWidth: 0
Flags: HW
LayerCount: 2
Fore
SplineSet
-1 1548 m 257
 -1 1350 l 257
 2048 1350 l 257
 2048 1548 l 257
 -1 1548 l 257
1740 1530 m 257
 1740 -1 l 257
 1940 -1 l 257
 1940 1530 l 257
 1740 1530 l 257
109 1543 m 257
 109 855 l 257
 309 855 l 257
 309 1543 l 257
 109 1543 l 257
965 1528 m 257
 965 844 l 257
 1165 844 l 257
 1165 1528 l 257
 965 1528 l 257
109 1024 m 257
 109 825 l 257
 1165 825 l 257
 1165 1024 l 257
 109 1024 l 257
EndSplineSet
EndChar

StartChar: uni0304
Encoding: 772 772 136
Width: 1024
Flags: HW
LayerCount: 2
Fore
SplineSet
226 1630 m 5
 786 1630 l 5
 786 1552 l 5
 226 1552 l 5
 226 1630 l 5
EndSplineSet
EndChar

StartChar: uni0306
Encoding: 774 774 137
Width: 1024
Flags: HW
LayerCount: 2
Fore
SplineSet
656 1552 m 5
 821 1645 l 1
 821 1552 l 1
 656 1480 l 1
 656 1552 l 5
332 1550 m 1
 656 1552 l 1
 656 1480 l 1
 331 1480 l 1
 332 1550 l 1
161 1630 m 1
 332 1550 l 1
 331 1480 l 1
 161 1552 l 1
 161 1630 l 1
EndSplineSet
EndChar

StartChar: uni0307
Encoding: 775 775 138
Width: 1024
Flags: HW
LayerCount: 2
Fore
SplineSet
622 1738 m 5
 734 1738 l 5
 734 1637 l 5
 622 1637 l 5
 622 1738 l 5
EndSplineSet
EndChar

StartChar: uni0308
Encoding: 776 776 139
Width: 1024
Flags: HW
LayerCount: 2
Fore
SplineSet
380 1738 m 1
 492 1738 l 1
 492 1637 l 1
 380 1637 l 1
 380 1738 l 1
622 1738 m 1
 734 1738 l 1
 734 1637 l 1
 622 1637 l 1
 622 1738 l 1
EndSplineSet
EndChar

StartChar: uni030A
Encoding: 778 778 140
Width: 1024
Flags: HW
LayerCount: 2
Fore
SplineSet
467 1756.5 m 5
 615 1756.5 l 5
 615 1626.5 l 5
 467 1626.5 l 5
 467 1756.5 l 5
362 1847 m 1
 362 1538 l 1
 722 1538 l 1
 722 1847 l 1
 362 1847 l 1
EndSplineSet
EndChar

StartChar: dotlessi
Encoding: 305 305 182
Width: 2048
Flags: H
LayerCount: 2
Fore
SplineSet
911 1018 m 257
 911 139 l 257
 1113 139 l 257
 1113 1018 l 257
 911 1018 l 257
141 204 m 257
 141 6 l 257
 1883 6 l 257
 1883 204 l 257
 141 204 l 257
191 1018 m 257
 191 818 l 257
 1067 818 l 257
 1067 1018 l 257
 191 1018 l 257
EndSplineSet
EndChar

StartChar: uni0237
Encoding: 567 567 183
Width: 2048
Flags: H
LayerCount: 2
Fore
SplineSet
1627 1024 m 257
 1627 -411 l 257
 1826 -411 l 257
 1826 1024 l 257
 1627 1024 l 257
197 -209 m 257
 197 -409 l 257
 1727 -409 l 257
 1727 -209 l 257
 197 -209 l 257
198 -6 m 257
 198 -351 l 257
 398 -351 l 257
 398 -6 l 257
 198 -6 l 257
EndSplineSet
EndChar
